SourceSans3-ExtraLight.ufo
<glyph name="quotesingle" format="2">
	<unicode hex="0027"/>
	<advance width="208"/>
	<outline>
		<contour>
			<point x="90" y="494" type="line"/>
			<point x="116" y="494" type="line"/>
			<point x="122" y="634" type="line"/>
			<point x="122" y="694" type="line"/>
			<point x="84" y="694" type="line"/>
			<point x="84" y="634" type="line"/>
		</contour>
	</outline>
</glyph>
<glyph name="parenright" format="2">
	<unicode hex="0029"/>
	<advance width="270"/>
	<outline>
		<contour>
			<point x="48" y="-174" type="line"/>
			<point x="130" y="-42"/>
			<point x="180" y="102"/>
			<point x="180" y="278" type="curve" smooth="yes"/>
			<point x="180" y="454"/>
			<point x="130" y="598"/>
			<point x="48" y="730" type="curve"/>
			<point x="30" y="718" type="line"/>
			<point x="110" y="592"/>
			<point x="152" y="438"/>
			<point x="152" y="278" type="curve" smooth="yes"/>
			<point x="152" y="118"/>
			<point x="110" y="-36"/>
			<point x="30" y="-162" type="curve"/>
		</contour>
	</outline>
</glyph>
<glyph name="F" format="2">
	<unicode hex="0046"/>
	<advance width="470"/>
	<outline>
		<contour>
			<point x="100" y="0" type="line"/>
			<point x="132" y="0" type="line"/>
			<point x="132" y="326" type="line"/>
			<point x="402" y="326" type="line"/>
			<point x="402" y="354" type="line"/>
			<point x="132" y="354" type="line"/>
			<point x="132" y="632" type="line"/>
			<point x="452" y="632" type="line"/>
			<point x="452" y="660" type="line"/>
			<point x="100" y="660" type="line"/>
		</contour>
	</outline>
	<anchor name="aboveUC" x="284" y="682"/>
	<anchor name="belowLC" x="116" y="-22"/>
</glyph>
<glyph name="J" format="2">
	<unicode hex="004A"/>
	<advance width="456"/>
	<outline>
		<contour>
			<point x="200" y="-12" type="curve" smooth="yes"/>
			<point x="316" y="-12"/>
			<point x="358" y="70"/>
			<point x="358" y="174" type="curve" smooth="yes"/>
			<point x="358" y="660" type="line"/>
			<point x="326" y="660" type="line"/>
			<point x="326" y="178" type="line" smooth="yes"/>
			<point x="326" y="68"/>
			<point x="286" y="18"/>
			<point x="202" y="18" type="curve" smooth="yes"/>
			<point x="144" y="18"/>
			<point x="104" y="40"/>
			<point x="70" y="98" type="curve"/>
			<point x="44" y="82" type="line"/>
			<point x="76" y="22"/>
			<point x="130" y="-12"/>
		</contour>
	</outline>
	<anchor name="aboveUC" x="338" y="682"/>
	<anchor name="belowLC" x="240" y="-22"/>
</glyph>
<glyph name="U" format="2">
	<unicode hex="0055"/>
	<advance width="630"/>
	<outline>
		<contour>
			<point x="314" y="-12" type="curve" smooth="yes"/>
			<point x="420" y="-12"/>
			<point x="532" y="42"/>
			<point x="532" y="246" type="curve" smooth="yes"/>
			<point x="532" y="660" type="line"/>
			<point x="502" y="660" type="line"/>
			<point x="502" y="254" type="line" smooth="yes"/>
			<point x="502" y="72"/>
			<point x="412" y="18"/>
			<point x="314" y="18" type="curve" smooth="yes"/>
			<point x="218" y="18"/>
			<point x="130" y="72"/>
			<point x="130" y="254" type="curve" smooth="yes"/>
			<point x="130" y="660" type="line"/>
			<point x="98" y="660" type="line"/>
			<point x="98" y="246" type="line" smooth="yes"/>
			<point x="98" y="42"/>
			<point x="208" y="-12"/>
		</contour>
	</outline>
	<anchor name="aboveUC" x="314" y="682"/>
	<anchor name="belowLC" x="314" y="-22"/>
	<anchor name="hornLC" x="510" y="672"/>
	<anchor name="ogonekUC" x="314" y="0"/>
</glyph>
<glyph name="z" format="2">
	<unicode hex="007A"/>
	<advance width="396"/>
	<outline>
		<contour>
			<point x="26" y="0" type="line"/>
			<point x="370" y="0" type="line"/>
			<point x="370" y="28" type="line"/>
			<point x="66" y="28" type="line"/>
			<point x="360" y="462" type="line"/>
			<point x="360" y="478" type="line"/>
			<point x="58" y="478" type="line"/>
			<point x="58" y="450" type="line"/>
			<point x="320" y="450" type="line"/>
			<point x="26" y="16" type="line"/>
		</contour>
	</outline>
	<anchor name="aboveLC" x="220" y="502"/>
	<anchor name="belowLC" x="210" y="-22"/>
	<anchor name="center" x="200" y="240"/>
</glyph>
<glyph name="brokenbar" format="2">
	<unicode hex="00A6"/>
	<advance width="220"/>
	<outline>
		<contour>
			<point x="96" y="274" type="line"/>
			<point x="124" y="274" type="line"/>
			<point x="124" y="750" type="line"/>
			<point x="96" y="750" type="line"/>
		</contour>
		<contour>
			<point x="96" y="-250" type="line"/>
			<point x="124" y="-250" type="line"/>
			<point x="124" y="222" type="line"/>
			<point x="96" y="222" type="line"/>
		</contour>
	</outline>
</glyph>
<glyph name="copyright" format="2">
	<unicode hex="00A9"/>
	<advance width="740"/>
	<outline>
		<contour>
			<point x="370" y="-12" type="curve" smooth="yes"/>
			<point x="542" y="-12"/>
			<point x="688" y="120"/>
			<point x="688" y="322" type="curve" smooth="yes"/>
			<point x="688" y="522"/>
			<point x="542" y="652"/>
			<point x="370" y="652" type="curve" smooth="yes"/>
			<point x="198" y="652"/>
			<point x="52" y="522"/>
			<point x="52" y="322" type="curve" smooth="yes"/>
			<point x="52" y="120"/>
			<point x="198" y="-12"/>
		</contour>
		<contour>
			<point x="370" y="14" type="curve" smooth="yes"/>
			<point x="216" y="14"/>
			<point x="82" y="138"/>
			<point x="82" y="322" type="curve" smooth="yes"/>
			<point x="82" y="504"/>
			<point x="216" y="626"/>
			<point x="370" y="626" type="curve" smooth="yes"/>
			<point x="524" y="626"/>
			<point x="658" y="504"/>
			<point x="658" y="322" type="curve" smooth="yes"/>
			<point x="658" y="138"/>
			<point x="524" y="14"/>
		</contour>
		<contour>
			<point x="374" y="130" type="curve" smooth="yes"/>
			<point x="440" y="130"/>
			<point x="476" y="154"/>
			<point x="510" y="192" type="curve"/>
			<point x="492" y="210" type="line"/>
			<point x="460" y="178"/>
			<point x="432" y="160"/>
			<point x="376" y="160" type="curve" smooth="yes"/>
			<point x="292" y="160"/>
			<point x="236" y="220"/>
			<point x="236" y="318" type="curve" smooth="yes"/>
			<point x="236" y="418"/>
			<point x="298" y="484"/>
			<point x="378" y="484" type="curve" smooth="yes"/>
			<point x="420" y="484"/>
			<point x="454" y="468"/>
			<point x="480" y="438" type="curve"/>
			<point x="500" y="456" type="line"/>
			<point x="472" y="490"/>
			<point x="432" y="514"/>
			<point x="380" y="514" type="curve" smooth="yes"/>
			<point x="286" y="514"/>
			<point x="202" y="440"/>
			<point x="202" y="318" type="curve" smooth="yes"/>
			<point x="202" y="198"/>
			<point x="280" y="130"/>
		</contour>
	</outline>
	<guideline x="339" y="322" angle="0" identifier="OOd7XdRfFN"/>
</glyph>
<glyph name="AE" format="2">
	<unicode hex="00C6"/>
	<advance width="804"/>
	<outline>
		<contour>
			<point x="26" y="0" type="line"/>
			<point x="60" y="0" type="line"/>
			<point x="280" y="392" type="line"/>
			<point x="324" y="474"/>
			<point x="368" y="554"/>
			<point x="410" y="630" type="curve"/>
			<point x="414" y="630" type="line"/>
			<point x="414" y="0" type="line"/>
			<point x="758" y="0" type="line"/>
			<point x="758" y="28" type="line"/>
			<point x="446" y="28" type="line"/>
			<point x="446" y="338" type="line"/>
			<point x="696" y="338" type="line"/>
			<point x="696" y="366" type="line"/>
			<point x="446" y="366" type="line"/>
			<point x="446" y="632" type="line"/>
			<point x="748" y="632" type="line"/>
			<point x="748" y="660" type="line"/>
			<point x="398" y="660" type="line"/>
		</contour>
		<contour>
			<point x="174" y="226" type="line"/>
			<point x="442" y="226" type="line"/>
			<point x="442" y="254" type="line"/>
			<point x="174" y="254" type="line"/>
		</contour>
	</outline>
	<anchor name="aboveUC" x="580" y="682"/>
</glyph>
<glyph name="Thorn" format="2">
	<unicode hex="00DE"/>
	<advance width="556"/>
	<outline>
		<contour>
			<point x="100" y="0" type="line"/>
			<point x="132" y="0" type="line"/>
			<point x="132" y="172" type="line"/>
			<point x="272" y="172" type="line" smooth="yes"/>
			<point x="420" y="172"/>
			<point x="504" y="234"/>
			<point x="504" y="360" type="curve" smooth="yes"/>
			<point x="504" y="492"/>
			<point x="420" y="540"/>
			<point x="272" y="540" type="curve" smooth="yes"/>
			<point x="132" y="540" type="line"/>
			<point x="132" y="660" type="line"/>
			<point x="100" y="660" type="line"/>
		</contour>
		<contour>
			<point x="132" y="200" type="line"/>
			<point x="132" y="512" type="line"/>
			<point x="260" y="512" type="line" smooth="yes"/>
			<point x="402" y="512"/>
			<point x="470" y="476"/>
			<point x="470" y="360" type="curve" smooth="yes"/>
			<point x="470" y="246"/>
			<point x="402" y="200"/>
			<point x="260" y="200" type="curve" smooth="yes"/>
		</contour>
	</outline>
</glyph>
<glyph name="kgreenlandic" format="2">
	<unicode hex="0138"/>
	<advance width="452"/>
	<outline>
		<contour>
			<point x="96" y="0" type="line"/>
			<point x="126" y="0" type="line"/>
			<point x="126" y="132" type="line"/>
			<point x="240" y="266" type="line"/>
			<point x="406" y="0" type="line"/>
			<point x="440" y="0" type="line"/>
			<point x="258" y="290" type="line"/>
			<point x="412" y="478" type="line"/>
			<point x="376" y="478" type="line"/>
			<point x="128" y="174" type="line"/>
			<point x="126" y="174" type="line"/>
			<point x="126" y="478" type="line"/>
			<point x="96" y="478" type="line"/>
		</contour>
	</outline>
</glyph>
<glyph name="oe" format="2">
	<unicode hex="0153"/>
	<advance width="852"/>
	<outline>
		<contour>
			<point x="262" y="-12" type="curve" smooth="yes"/>
			<point x="348" y="-12"/>
			<point x="416" y="38"/>
			<point x="452" y="136" type="curve"/>
			<point x="486" y="46"/>
			<point x="558" y="-12"/>
			<point x="646" y="-12" type="curve" smooth="yes"/>
			<point x="718" y="-12"/>
			<point x="758" y="10"/>
			<point x="794" y="34" type="curve"/>
			<point x="780" y="56" type="line"/>
			<point x="746" y="32"/>
			<point x="702" y="16"/>
			<point x="648" y="16" type="curve" smooth="yes"/>
			<point x="546" y="16"/>
			<point x="466" y="110"/>
			<point x="468" y="238" type="curve"/>
			<point x="812" y="238" type="line"/>
			<point x="814" y="250"/>
			<point x="814" y="260"/>
			<point x="814" y="270" type="curve" smooth="yes"/>
			<point x="814" y="412"/>
			<point x="744" y="490"/>
			<point x="634" y="490" type="curve"/>
			<point x="554" y="490"/>
			<point x="486" y="432"/>
			<point x="452" y="340" type="curve"/>
			<point x="418" y="440"/>
			<point x="340" y="490"/>
			<point x="262" y="490" type="curve" smooth="yes"/>
			<point x="152" y="490"/>
			<point x="54" y="398"/>
			<point x="54" y="238" type="curve" smooth="yes"/>
			<point x="54" y="80"/>
			<point x="152" y="-12"/>
		</contour>
		<contour>
			<point x="262" y="16" type="curve" smooth="yes"/>
			<point x="162" y="16"/>
			<point x="86" y="106"/>
			<point x="86" y="238" type="curve" smooth="yes"/>
			<point x="86" y="370"/>
			<point x="162" y="462"/>
			<point x="262" y="462" type="curve" smooth="yes"/>
			<point x="364" y="462"/>
			<point x="438" y="370"/>
			<point x="438" y="238" type="curve" smooth="yes"/>
			<point x="438" y="106"/>
			<point x="364" y="16"/>
		</contour>
		<contour>
			<point x="468" y="264" type="line"/>
			<point x="478" y="380"/>
			<point x="550" y="462"/>
			<point x="634" y="462" type="curve" smooth="yes"/>
			<point x="724" y="462"/>
			<point x="784" y="396"/>
			<point x="784" y="264" type="curve"/>
		</contour>
	</outline>
	<anchor name="aboveLC" x="450" y="502"/>
	<anchor name="belowLC" x="450" y="-22"/>
</glyph>
<glyph name="Uogonek" format="2">
	<unicode hex="0172"/>
	<advance width="630"/>
	<outline>
		<contour>
			<point x="326" y="-214" type="curve" smooth="yes"/>
			<point x="356" y="-214"/>
			<point x="382" y="-200"/>
			<point x="398" y="-186" type="curve"/>
			<point x="384" y="-166" type="line"/>
			<point x="366" y="-180"/>
			<point x="350" y="-186"/>
			<point x="328" y="-186" type="curve" smooth="yes"/>
			<point x="298" y="-186"/>
			<point x="268" y="-168"/>
			<point x="268" y="-126" type="curve" smooth="yes"/>
			<point x="268" y="-76"/>
			<point x="310" y="-18"/>
			<point x="354" y="-10" type="curve" smooth="yes"/>
			<point x="463" y="10"/>
			<point x="532" y="85"/>
			<point x="532" y="246" type="curve" smooth="yes"/>
			<point x="532" y="660" type="line"/>
			<point x="502" y="660" type="line"/>
			<point x="502" y="254" type="line" smooth="yes"/>
			<point x="502" y="72"/>
			<point x="412" y="18"/>
			<point x="314" y="18" type="curve" smooth="yes"/>
			<point x="218" y="18"/>
			<point x="130" y="72"/>
			<point x="130" y="254" type="curve" smooth="yes"/>
			<point x="130" y="660" type="line"/>
			<point x="98" y="660" type="line"/>
			<point x="98" y="246" type="line" smooth="yes"/>
			<point x="98" y="42"/>
			<point x="208" y="-12"/>
			<point x="314" y="-12" type="curve"/>
			<point x="316" y="4" type="line"/>
			<point x="278" y="-26"/>
			<point x="238" y="-72"/>
			<point x="238" y="-128" type="curve" smooth="yes"/>
			<point x="238" y="-188"/>
			<point x="278" y="-214"/>
		</contour>
	</outline>
	<anchor name="aboveUC" x="314" y="682"/>
</glyph>
<glyph name="Ohorn" format="2">
	<unicode hex="01A0"/>
	<advance width="648"/>
	<outline>
		<contour>
			<point x="479" y="617" type="line"/>
			<point x="541" y="633"/>
			<point x="584" y="670"/>
			<point x="584" y="732" type="curve" smooth="yes"/>
			<point x="584" y="754"/>
			<point x="578" y="776"/>
			<point x="566" y="798" type="curve"/>
			<point x="536" y="782" type="line"/>
			<point x="546" y="765"/>
			<point x="550" y="745"/>
			<point x="550" y="730" type="curve" smooth="yes"/>
			<point x="550" y="682"/>
			<point x="518" y="650"/>
			<point x="448" y="640" type="curve"/>
		</contour>
		<component base="O" xOffset="4"/>
	</outline>
	<anchor name="aboveUC" x="328" y="682"/>
	<anchor name="belowLC" x="322" y="-22"/>
</glyph>
<glyph name="Ezh" format="2">
	<unicode hex="01B7"/>
	<advance width="546"/>
	<outline>
		<contour>
			<point x="280" y="-12" type="curve" smooth="yes"/>
			<point x="400" y="-12"/>
			<point x="500" y="58"/>
			<point x="500" y="182" type="curve" smooth="yes"/>
			<point x="500" y="306"/>
			<point x="392" y="390"/>
			<point x="230" y="358" type="curve"/>
			<point x="490" y="642" type="line"/>
			<point x="490" y="660" type="line"/>
			<point x="92" y="660" type="line"/>
			<point x="92" y="632" type="line"/>
			<point x="444" y="632" type="line"/>
			<point x="182" y="346" type="line"/>
			<point x="202" y="320" type="line"/>
			<point x="228" y="332"/>
			<point x="248" y="336"/>
			<point x="290" y="336" type="curve" smooth="yes"/>
			<point x="398" y="336"/>
			<point x="468" y="278"/>
			<point x="468" y="180" type="curve" smooth="yes"/>
			<point x="468" y="76"/>
			<point x="380" y="18"/>
			<point x="280" y="18" type="curve" smooth="yes"/>
			<point x="194" y="18"/>
			<point x="130" y="36"/>
			<point x="68" y="104" type="curve"/>
			<point x="48" y="84" type="line"/>
			<point x="110" y="12"/>
			<point x="182" y="-12"/>
		</contour>
	</outline>
	<anchor name="aboveUC" x="290" y="682"/>
	<anchor name="belowLC" x="280" y="-22"/>
</glyph>
<glyph name="gstroke" format="2">
	<unicode hex="01E5"/>
	<advance width="560"/>
	<outline>
		<contour>
			<point x="278" y="238" type="line"/>
			<point x="534" y="238" type="line"/>
			<point x="534" y="266" type="line"/>
			<point x="414" y="266" type="line"/>
			<point x="278" y="262" type="line"/>
		</contour>
		<component base="gscript"/>
	</outline>
	<anchor name="aboveLC" x="270" y="502"/>
	<anchor name="belowLC" x="270" y="-222"/>
</glyph>
<glyph name="yogh" format="2">
	<unicode hex="021D"/>
	<advance width="414"/>
	<outline>
		<contour>
			<point x="82" y="-234" type="line"/>
			<point x="285" y="-143"/>
			<point x="372" y="-46"/>
			<point x="372" y="56" type="curve" smooth="yes"/>
			<point x="372" y="148"/>
			<point x="306" y="196"/>
			<point x="200" y="191" type="curve"/>
			<point x="287" y="248"/>
			<point x="334" y="293"/>
			<point x="334" y="364" type="curve" smooth="yes"/>
			<point x="334" y="443"/>
			<point x="284" y="490"/>
			<point x="208" y="490" type="curve" smooth="yes"/>
			<point x="124" y="490"/>
			<point x="74" y="452"/>
			<point x="12" y="386" type="curve"/>
			<point x="30" y="370" type="line"/>
			<point x="90" y="432"/>
			<point x="136" y="462"/>
			<point x="206" y="462" type="curve" smooth="yes"/>
			<point x="265" y="462"/>
			<point x="302" y="426"/>
			<point x="302" y="364" type="curve" smooth="yes"/>
			<point x="302" y="299"/>
			<point x="264" y="252"/>
			<point x="100" y="156" type="curve"/>
			<point x="114" y="136" type="line"/>
			<point x="151" y="158"/>
			<point x="186" y="164"/>
			<point x="219" y="164" type="curve" smooth="yes"/>
			<point x="292" y="164"/>
			<point x="340" y="124"/>
			<point x="340" y="56" type="curve" smooth="yes"/>
			<point x="340" y="-28"/>
			<point x="270" y="-121"/>
			<point x="70" y="-210" type="curve"/>
		</contour>
	</outline>
	<anchor name="aboveLC" x="200" y="502"/>
	<anchor name="belowLC" x="210" y="-222"/>
</glyph>
<glyph name="Lbar" format="2">
	<unicode hex="023D"/>
	<advance width="476"/>
	<outline>
		<contour>
			<point x="22" y="336" type="line"/>
			<point x="350" y="336" type="line"/>
			<point x="350" y="364" type="line"/>
			<point x="122" y="364" type="line"/>
			<point x="22" y="362" type="line"/>
		</contour>
		<component base="L" xOffset="20"/>
	</outline>
	<anchor name="aboveUC" x="140" y="682"/>
	<anchor name="belowLC" x="300" y="-22"/>
</glyph>
<glyph name="aturned" format="2">
	<unicode hex="0250"/>
	<advance width="486"/>
	<outline>
		<contour>
			<point x="258" y="-12" type="curve" smooth="yes"/>
			<point x="326" y="-12"/>
			<point x="392" y="26"/>
			<point x="422" y="50" type="curve"/>
			<point x="406" y="72" type="line"/>
			<point x="376" y="50"/>
			<point x="318" y="16"/>
			<point x="260" y="16" type="curve" smooth="yes"/>
			<point x="136" y="16"/>
			<point x="110" y="108"/>
			<point x="112" y="180" type="curve"/>
			<point x="328" y="205"/>
			<point x="426" y="258"/>
			<point x="426" y="371" type="curve" smooth="yes"/>
			<point x="426" y="455"/>
			<point x="367" y="490"/>
			<point x="298" y="490" type="curve" smooth="yes"/>
			<point x="234" y="490"/>
			<point x="167" y="456"/>
			<point x="114" y="404" type="curve"/>
			<point x="112" y="404" type="line"/>
			<point x="108" y="478" type="line"/>
			<point x="82" y="478" type="line"/>
			<point x="82" y="178" type="line" smooth="yes"/>
			<point x="82" y="77"/>
			<point x="122" y="-12"/>
		</contour>
		<contour>
			<point x="112" y="206" type="curve"/>
			<point x="112" y="368" type="line"/>
			<point x="180" y="436"/>
			<point x="240" y="462"/>
			<point x="296" y="462" type="curve" smooth="yes"/>
			<point x="349" y="462"/>
			<point x="394" y="437"/>
			<point x="394" y="370" type="curve" smooth="yes"/>
			<point x="394" y="283"/>
			<point x="322" y="232"/>
		</contour>
	</outline>
	<anchor name="aboveLC" x="270" y="502"/>
	<anchor name="belowLC" x="260" y="-22"/>
	<anchor name="ogonekLC" x="260" y="0"/>
</glyph>
<glyph name="schwahookrhotic" format="2">
	<unicode hex="025A"/>
	<advance width="620"/>
	<outline>
		<contour>
			<point x="230" y="-12" type="curve" smooth="yes"/>
			<point x="353" y="-12"/>
			<point x="424" y="102"/>
			<point x="424" y="240" type="curve" smooth="yes"/>
			<point x="424" y="408"/>
			<point x="334" y="490"/>
			<point x="222" y="490" type="curve" smooth="yes"/>
			<point x="152" y="490"/>
			<point x="106" y="466"/>
			<point x="68" y="440" type="curve"/>
			<point x="82" y="414" type="line"/>
			<point x="120" y="442"/>
			<point x="164" y="462"/>
			<point x="222" y="462" type="curve" smooth="yes"/>
			<point x="314" y="462"/>
			<point x="392" y="392"/>
			<point x="392" y="238" type="curve" smooth="yes"/>
			<point x="392" y="119"/>
			<point x="334" y="16"/>
			<point x="230" y="16" type="curve" smooth="yes"/>
			<point x="138" y="16"/>
			<point x="86" y="72"/>
			<point x="70" y="166" type="curve"/>
			<point x="506" y="328" type="line"/>
			<point x="506" y="304" type="line" smooth="yes"/>
			<point x="506" y="222"/>
			<point x="540" y="194"/>
			<point x="582" y="194" type="curve" smooth="yes"/>
			<point x="608" y="194"/>
			<point x="626" y="206"/>
			<point x="640" y="216" type="curve"/>
			<point x="624" y="238" type="line"/>
			<point x="616" y="230"/>
			<point x="602" y="222"/>
			<point x="586" y="222" type="curve" smooth="yes"/>
			<point x="552" y="222"/>
			<point x="534" y="242"/>
			<point x="534" y="318" type="curve" smooth="yes"/>
			<point x="534" y="330"/>
			<point x="534" y="340"/>
			<point x="536" y="358" type="curve"/>
			<point x="526" y="364" type="line"/>
			<point x="38" y="182" type="line"/>
			<point x="50" y="70"/>
			<point x="112" y="-12"/>
		</contour>
	</outline>
	<anchor name="aboveLC" x="220" y="502"/>
	<anchor name="belowLC" x="260" y="-22"/>
</glyph>
<glyph name="dotlessjstroke" format="2">
	<unicode hex="025F"/>
	<advance width="262"/>
	<outline>
		<contour>
			<point x="22" y="238" type="line"/>
			<point x="236" y="238" type="line"/>
			<point x="236" y="266" type="line"/>
			<point x="116" y="266" type="line"/>
			<point x="22" y="262" type="line"/>
		</contour>
		<component base="dotlessj" xOffset="20"/>
	</outline>
	<anchor name="aboveLC" x="130" y="502"/>
	<anchor name="belowLC" x="70" y="-222"/>
</glyph>
<glyph name="gscript" format="2">
	<unicode hex="0261"/>
	<advance width="540"/>
	<outline>
		<contour>
			<point x="258" y="-234" type="curve" smooth="yes"/>
			<point x="376" y="-234"/>
			<point x="444" y="-160"/>
			<point x="444" y="-48" type="curve" smooth="yes"/>
			<point x="444" y="478" type="line"/>
			<point x="416" y="478" type="line"/>
			<point x="412" y="434" type="line"/>
			<point x="410" y="434" type="line"/>
			<point x="366" y="468"/>
			<point x="326" y="490"/>
			<point x="268" y="490" type="curve" smooth="yes"/>
			<point x="152" y="490"/>
			<point x="54" y="396"/>
			<point x="54" y="244" type="curve" smooth="yes"/>
			<point x="54" y="84"/>
			<point x="132" y="-2"/>
			<point x="252" y="-2" type="curve" smooth="yes"/>
			<point x="318" y="-2"/>
			<point x="374" y="35"/>
			<point x="414" y="76" type="curve"/>
			<point x="414" y="-40" type="line"/>
			<point x="414" y="-144"/>
			<point x="360" y="-207"/>
			<point x="258" y="-207" type="curve" smooth="yes"/>
			<point x="206" y="-207"/>
			<point x="156" y="-192"/>
			<point x="108" y="-156" type="curve"/>
			<point x="92" y="-182" type="line"/>
			<point x="138" y="-214"/>
			<point x="192" y="-234"/>
		</contour>
		<contour>
			<point x="254" y="26" type="curve" smooth="yes"/>
			<point x="146" y="26"/>
			<point x="86" y="114"/>
			<point x="86" y="244" type="curve" smooth="yes"/>
			<point x="86" y="366"/>
			<point x="164" y="462"/>
			<point x="266" y="462" type="curve" smooth="yes"/>
			<point x="316" y="462"/>
			<point x="360" y="444"/>
			<point x="414" y="396" type="curve"/>
			<point x="414" y="110" type="line"/>
			<point x="360" y="56"/>
			<point x="310" y="26"/>
		</contour>
	</outline>
	<anchor name="aboveLC" x="270" y="502"/>
	<anchor name="belowLC" x="270" y="-222"/>
</glyph>
<glyph name="ramshorn" format="2">
	<unicode hex="0264"/>
	<advance width="464"/>
	<outline>
		<contour>
			<point x="232" y="-12" type="curve" smooth="yes"/>
			<point x="339" y="-12"/>
			<point x="386" y="50"/>
			<point x="386" y="144" type="curve" smooth="yes"/>
			<point x="386" y="228"/>
			<point x="324" y="308"/>
			<point x="254" y="376" type="curve"/>
			<point x="298" y="428"/>
			<point x="341" y="462"/>
			<point x="387" y="462" type="curve" smooth="yes"/>
			<point x="405" y="462"/>
			<point x="421" y="458"/>
			<point x="435" y="448" type="curve"/>
			<point x="448" y="471" type="line"/>
			<point x="430" y="483"/>
			<point x="408" y="490"/>
			<point x="384" y="490" type="curve" smooth="yes"/>
			<point x="330" y="490"/>
			<point x="277" y="448"/>
			<point x="232" y="396" type="curve"/>
			<point x="186" y="448"/>
			<point x="134" y="490"/>
			<point x="80" y="490" type="curve" smooth="yes"/>
			<point x="56" y="490"/>
			<point x="34" y="483"/>
			<point x="16" y="471" type="curve"/>
			<point x="29" y="448" type="line"/>
			<point x="43" y="458"/>
			<point x="59" y="462"/>
			<point x="77" y="462" type="curve" smooth="yes"/>
			<point x="122" y="462"/>
			<point x="166" y="428"/>
			<point x="210" y="376" type="curve"/>
			<point x="138" y="308"/>
			<point x="78" y="228"/>
			<point x="78" y="144" type="curve" smooth="yes"/>
			<point x="78" y="50"/>
			<point x="125" y="-12"/>
		</contour>
		<contour>
			<point x="232" y="16" type="curve" smooth="yes"/>
			<point x="148" y="16"/>
			<point x="110" y="75"/>
			<point x="110" y="144" type="curve" smooth="yes"/>
			<point x="110" y="220"/>
			<point x="166" y="296"/>
			<point x="232" y="358" type="curve"/>
			<point x="298" y="296"/>
			<point x="354" y="220"/>
			<point x="354" y="144" type="curve" smooth="yes"/>
			<point x="354" y="75"/>
			<point x="316" y="16"/>
		</contour>
	</outline>
	<anchor name="aboveLC" x="230" y="502"/>
	<anchor name="belowLC" x="230" y="-22"/>
</glyph>
<glyph name="hturned" format="2">
	<unicode hex="0265"/>
	<advance width="526"/>
	<outline>
		<contour>
			<point x="400" y="-222" type="line"/>
			<point x="430" y="-222" type="line"/>
			<point x="430" y="478" type="line"/>
			<point x="400" y="478" type="line"/>
			<point x="400" y="120" type="line"/>
			<point x="338" y="46"/>
			<point x="294" y="16"/>
			<point x="234" y="16" type="curve" smooth="yes"/>
			<point x="152" y="16"/>
			<point x="118" y="68"/>
			<point x="118" y="174" type="curve" smooth="yes"/>
			<point x="118" y="478" type="line"/>
			<point x="88" y="478" type="line"/>
			<point x="88" y="170" type="line" smooth="yes"/>
			<point x="88" y="46"/>
			<point x="134" y="-12"/>
			<point x="232" y="-12" type="curve" smooth="yes"/>
			<point x="298" y="-12"/>
			<point x="348" y="24"/>
			<point x="402" y="86" type="curve"/>
			<point x="400" y="-30" type="line"/>
		</contour>
	</outline>
	<anchor name="aboveLC" x="260" y="502"/>
	<anchor name="belowLC" x="250" y="-222"/>
</glyph>
<glyph name="ismall" format="2">
	<unicode hex="026A"/>
	<advance width="298"/>
	<outline>
		<contour>
			<point x="42" y="0" type="line"/>
			<point x="256" y="0" type="line"/>
			<point x="256" y="28" type="line"/>
			<point x="164" y="28" type="line"/>
			<point x="164" y="450" type="line"/>
			<point x="256" y="450" type="line"/>
			<point x="256" y="478" type="line"/>
			<point x="42" y="478" type="line"/>
			<point x="42" y="450" type="line"/>
			<point x="134" y="450" type="line"/>
			<point x="134" y="28" type="line"/>
			<point x="42" y="28" type="line"/>
		</contour>
	</outline>
	<anchor name="aboveLC" x="150" y="502"/>
	<anchor name="belowLC" x="150" y="-22"/>
	<anchor name="ogonekLC" x="150" y="0"/>
</glyph>
<glyph name="lbelt" format="2">
	<unicode hex="026C"/>
	<advance width="252"/>
	<outline>
		<contour>
			<point x="108" y="352" type="curve" smooth="yes"/>
			<point x="252" y="352" type="line"/>
			<point x="252" y="380" type="line"/>
			<point x="102" y="380" type="line" smooth="yes"/>
			<point x="52" y="380"/>
			<point x="30" y="400"/>
			<point x="30" y="424" type="curve" smooth="yes"/>
			<point x="30" y="444"/>
			<point x="41" y="462"/>
			<point x="68" y="462" type="curve" smooth="yes"/>
			<point x="102" y="462"/>
			<point x="120" y="436"/>
			<point x="120" y="390" type="curve"/>
			<point x="140" y="382" type="line"/>
			<point x="140" y="440"/>
			<point x="120" y="490"/>
			<point x="64" y="490" type="curve" smooth="yes"/>
			<point x="24" y="490"/>
			<point x="-2" y="462"/>
			<point x="-2" y="426" type="curve" smooth="yes"/>
			<point x="-2" y="383"/>
			<point x="34" y="352"/>
		</contour>
		<component base="l.a" xOffset="24"/>
	</outline>
	<anchor name="aboveUC" x="140" y="732"/>
	<anchor name="belowLC" x="140" y="-22"/>
</glyph>
<glyph name="obar" format="2">
	<unicode hex="0275"/>
	<advance width="532"/>
	<outline>
		<contour>
			<point x="266" y="-12" type="curve" smooth="yes"/>
			<point x="382" y="-12"/>
			<point x="478" y="74"/>
			<point x="478" y="238" type="curve" smooth="yes"/>
			<point x="478" y="404"/>
			<point x="382" y="490"/>
			<point x="266" y="490" type="curve" smooth="yes"/>
			<point x="150" y="490"/>
			<point x="54" y="404"/>
			<point x="54" y="238" type="curve" smooth="yes"/>
			<point x="54" y="74"/>
			<point x="150" y="-12"/>
		</contour>
		<contour>
			<point x="266" y="16" type="curve" smooth="yes"/>
			<point x="162" y="16"/>
			<point x="84" y="100"/>
			<point x="84" y="238" type="curve" smooth="yes"/>
			<point x="84" y="376"/>
			<point x="162" y="462"/>
			<point x="266" y="462" type="curve" smooth="yes"/>
			<point x="370" y="462"/>
			<point x="448" y="376"/>
			<point x="448" y="238" type="curve" smooth="yes"/>
			<point x="448" y="100"/>
			<point x="370" y="16"/>
		</contour>
		<contour>
			<point x="74" y="238" type="line"/>
			<point x="454" y="238" type="line"/>
			<point x="454" y="266" type="line"/>
			<point x="74" y="266" type="line"/>
		</contour>
	</outline>
	<anchor name="aboveLC" x="266" y="502"/>
	<anchor name="belowLC" x="266" y="-22"/>
	<anchor name="ogonekLC" x="266" y="0"/>
</glyph>
<glyph name="rfishhook" format="2">
	<unicode hex="027E"/>
	<advance width="296"/>
	<outline>
		<contour>
			<point x="96" y="0" type="line"/>
			<point x="126" y="0" type="line"/>
			<point x="126" y="318" type="line" smooth="yes"/>
			<point x="126" y="408"/>
			<point x="172" y="462"/>
			<point x="234" y="462" type="curve" smooth="yes"/>
			<point x="258" y="462"/>
			<point x="274" y="460"/>
			<point x="292" y="450" type="curve"/>
			<point x="300" y="476" type="line"/>
			<point x="282" y="486"/>
			<point x="262" y="490"/>
			<point x="236" y="490" type="curve" smooth="yes"/>
			<point x="161" y="490"/>
			<point x="96" y="437"/>
			<point x="96" y="322" type="curve" smooth="yes"/>
		</contour>
	</outline>
	<anchor name="aboveLC" x="200" y="502"/>
	<anchor name="belowLC" x="110" y="-22"/>
	<anchor name="center" x="130" y="220"/>
</glyph>
<glyph name="glottalstop" format="2">
	<unicode hex="0294"/>
	<advance width="392"/>
	<outline>
		<contour>
			<point x="160" y="0" type="line"/>
			<point x="190" y="0" type="line"/>
			<point x="190" y="308" type="line"/>
			<point x="294" y="370"/>
			<point x="370" y="434"/>
			<point x="370" y="552" type="curve" smooth="yes"/>
			<point x="370" y="670"/>
			<point x="290" y="734"/>
			<point x="184" y="734" type="curve" smooth="yes"/>
			<point x="92" y="734"/>
			<point x="38" y="688"/>
			<point x="2" y="648" type="curve"/>
			<point x="22" y="626" type="line"/>
			<point x="56" y="666"/>
			<point x="104" y="706"/>
			<point x="186" y="706" type="curve" smooth="yes"/>
			<point x="284" y="706"/>
			<point x="338" y="644"/>
			<point x="338" y="554" type="curve" smooth="yes"/>
			<point x="338" y="454"/>
			<point x="278" y="392"/>
			<point x="160" y="330" type="curve"/>
		</contour>
	</outline>
	<anchor name="aboveUC" x="190" y="732"/>
	<anchor name="belowLC" x="170" y="-22"/>
</glyph>
<glyph name="kturned" format="2">
	<unicode hex="029E"/>
	<advance width="452"/>
	<outline>
		<contour>
			<point x="326" y="-222" type="line"/>
			<point x="356" y="-222" type="line"/>
			<point x="356" y="478" type="line"/>
			<point x="326" y="478" type="line"/>
			<point x="326" y="340" type="line"/>
			<point x="12" y="0" type="line"/>
			<point x="48" y="0" type="line"/>
			<point x="323" y="302" type="line"/>
			<point x="326" y="302" type="line"/>
		</contour>
		<contour>
			<point x="220" y="200" type="line"/>
			<point x="238" y="222" type="line"/>
			<point x="74" y="478" type="line"/>
			<point x="40" y="478" type="line"/>
		</contour>
	</outline>
	<anchor name="aboveLC" x="220" y="502"/>
	<anchor name="belowLC" x="330" y="-222"/>
</glyph>
<glyph name="rturned.sups" format="2">
	<unicode hex="02B4"/>
	<advance width="214"/>
	<outline>
		<contour>
			<point x="32" y="402" type="curve" smooth="yes"/>
			<point x="70" y="402"/>
			<point x="98" y="426"/>
			<point x="122" y="466" type="curve"/>
			<point x="126" y="466" type="line"/>
			<point x="132" y="410" type="line"/>
			<point x="154" y="410" type="line"/>
			<point x="154" y="726" type="line"/>
			<point x="124" y="726" type="line"/>
			<point x="124" y="510" type="line"/>
			<point x="98" y="452"/>
			<point x="65" y="432"/>
			<point x="34" y="432" type="curve" smooth="yes"/>
			<point x="24" y="432"/>
			<point x="12" y="434"/>
			<point x="6" y="436" type="curve"/>
			<point x="-2" y="408" type="line"/>
			<point x="6" y="404"/>
			<point x="20" y="402"/>
		</contour>
	</outline>
</glyph>
<glyph name="verticallinemod" format="2">
	<unicode hex="02C8"/>
	<advance width="168"/>
	<outline>
		<contour>
			<point x="74" y="490" type="line"/>
			<point x="94" y="490" type="line"/>
			<point x="100" y="722" type="line"/>
			<point x="68" y="722" type="line"/>
		</contour>
	</outline>
</glyph>
<glyph name="uptackmod" format="2">
	<unicode hex="02D4"/>
	<advance width="360"/>
	<outline>
		<contour>
			<point x="34" y="110" type="line"/>
			<point x="326" y="110" type="line"/>
			<point x="326" y="138" type="line"/>
			<point x="194" y="138" type="line"/>
			<point x="194" y="426" type="line"/>
			<point x="164" y="426" type="line"/>
			<point x="164" y="138" type="line"/>
			<point x="34" y="138" type="line"/>
		</contour>
	</outline>
</glyph>
<glyph name="acutecmb" format="2">
	<unicode hex="0301"/>
	<outline>
		<contour>
			<point x="-70" y="570" type="line"/>
			<point x="-40" y="570" type="line"/>
			<point x="110" y="716" type="line"/>
			<point x="108" y="720" type="line"/>
			<point x="70" y="720" type="line"/>
		</contour>
	</outline>
	<anchor name="_aboveLC" x="0" y="502"/>
</glyph>
<glyph name="circumflexcmb" format="2">
	<unicode hex="0302"/>
	<outline>
		<contour>
			<point x="-150" y="570" type="line"/>
			<point x="-120" y="570" type="line"/>
			<point x="-2" y="686" type="line"/>
			<point x="2" y="686" type="line"/>
			<point x="120" y="570" type="line"/>
			<point x="150" y="570" type="line"/>
			<point x="10" y="720" type="line"/>
			<point x="-10" y="720" type="line"/>
		</contour>
	</outline>
	<anchor name="_aboveLC" x="0" y="502"/>
	<anchor name="aboveLC" x="0" y="732"/>
</glyph>
<glyph name="hoicmb" format="2">
	<unicode hex="0309"/>
	<outline>
		<contour>
			<point x="-22" y="558" type="line"/>
			<point x="24" y="572"/>
			<point x="66" y="606"/>
			<point x="66" y="660" type="curve" smooth="yes"/>
			<point x="66" y="714"/>
			<point x="10" y="734"/>
			<point x="-48" y="736" type="curve"/>
			<point x="-50" y="710" type="line"/>
			<point x="4" y="708"/>
			<point x="36" y="692"/>
			<point x="36" y="656" type="curve" smooth="yes"/>
			<point x="36" y="624"/>
			<point x="10" y="594"/>
			<point x="-30" y="582" type="curve"/>
		</contour>
	</outline>
	<anchor name="_aboveLC" x="0" y="502"/>
	<anchor name="aboveLC" x="0" y="722"/>
</glyph>
<glyph name="caroncmb" format="2">
	<unicode hex="030C"/>
	<outline>
		<contour>
			<point x="-10" y="570" type="line"/>
			<point x="10" y="570" type="line"/>
			<point x="150" y="720" type="line"/>
			<point x="120" y="720" type="line"/>
			<point x="2" y="604" type="line"/>
			<point x="-2" y="604" type="line"/>
			<point x="-120" y="720" type="line"/>
			<point x="-150" y="720" type="line"/>
		</contour>
	</outline>
	<anchor name="_aboveLC" x="0" y="502"/>
	<anchor name="aboveLC" x="0" y="702"/>
</glyph>
<glyph name="horncmb" format="2">
	<unicode hex="031B"/>
	<outline>
		<contour>
			<point x="-2" y="440" type="line"/>
			<point x="70" y="452"/>
			<point x="122" y="492"/>
			<point x="122" y="558" type="curve" smooth="yes"/>
			<point x="122" y="585"/>
			<point x="116" y="599"/>
			<point x="104" y="626" type="curve"/>
			<point x="76" y="610" type="line"/>
			<point x="86" y="588"/>
			<point x="90" y="574"/>
			<point x="90" y="556" type="curve" smooth="yes"/>
			<point x="90" y="512"/>
			<point x="60" y="476"/>
			<point x="-8" y="466" type="curve"/>
		</contour>
	</outline>
	<anchor name="_hornLC" x="0" y="482"/>
</glyph>
<glyph name="ringhalfrightbelowcmb" format="2">
	<unicode hex="0339"/>
	<outline>
		<contour>
			<point x="-58" y="-258" type="line"/>
			<point x="16" y="-260"/>
			<point x="58" y="-224"/>
			<point x="58" y="-164" type="curve" smooth="yes"/>
			<point x="58" y="-104"/>
			<point x="16" y="-68"/>
			<point x="-58" y="-70" type="curve"/>
			<point x="-58" y="-92" type="line"/>
			<point x="2" y="-92"/>
			<point x="30" y="-120"/>
			<point x="30" y="-164" type="curve" smooth="yes"/>
			<point x="30" y="-208"/>
			<point x="2" y="-236"/>
			<point x="-58" y="-236" type="curve"/>
		</contour>
	</outline>
	<anchor name="_belowLC" x="0" y="-22"/>
</glyph>
<glyph name="breveinverteddoublecmb" format="2">
	<unicode hex="0361"/>
	<outline>
		<contour>
			<point x="-440" y="562" type="line"/>
			<point x="-314" y="642"/>
			<point x="-160" y="684"/>
			<point x="0" y="684" type="curve" smooth="yes"/>
			<point x="160" y="684"/>
			<point x="314" y="642"/>
			<point x="440" y="562" type="curve"/>
			<point x="452" y="582" type="line"/>
			<point x="320" y="664"/>
			<point x="176" y="712"/>
			<point x="0" y="712" type="curve" smooth="yes"/>
			<point x="-176" y="712"/>
			<point x="-320" y="664"/>
			<point x="-452" y="582" type="curve"/>
		</contour>
	</outline>
</glyph>
<glyph name="Sigma" format="2">
	<unicode hex="03A3"/>
	<advance width="528"/>
	<outline>
		<contour>
			<point x="48" y="0" type="line"/>
			<point x="490" y="0" type="line"/>
			<point x="490" y="28" type="line"/>
			<point x="92" y="28" type="line"/>
			<point x="328" y="336" type="line"/>
			<point x="96" y="632" type="line"/>
			<point x="458" y="632" type="line"/>
			<point x="458" y="660" type="line"/>
			<point x="54" y="660" type="line"/>
			<point x="54" y="642" type="line"/>
			<point x="294" y="336" type="line"/>
			<point x="48" y="18" type="line"/>
		</contour>
	</outline>
</glyph>
<glyph name="Sho" format="2">
	<unicode hex="03F7"/>
	<advance width="520"/>
	<outline>
		<contour>
			<point x="100" y="-22" type="line"/>
			<point x="132" y="-22" type="line"/>
			<point x="132" y="94" type="line"/>
			<point x="188" y="94" type="line" smooth="yes"/>
			<point x="360" y="94"/>
			<point x="472" y="188"/>
			<point x="472" y="332" type="curve" smooth="yes"/>
			<point x="472" y="476"/>
			<point x="360" y="566"/>
			<point x="188" y="566" type="curve" smooth="yes"/>
			<point x="132" y="566" type="line"/>
			<point x="132" y="682" type="line"/>
			<point x="100" y="682" type="line"/>
		</contour>
		<contour>
			<point x="132" y="122" type="line"/>
			<point x="132" y="538" type="line"/>
			<point x="188" y="538" type="line" smooth="yes"/>
			<point x="342" y="538"/>
			<point x="438" y="456"/>
			<point x="438" y="332" type="curve" smooth="yes"/>
			<point x="438" y="208"/>
			<point x="342" y="122"/>
			<point x="188" y="122" type="curve" smooth="yes"/>
		</contour>
	</outline>
</glyph>
<glyph name="Tshe" format="2">
	<unicode hex="040B"/>
	<advance width="678"/>
	<outline>
		<contour>
			<point x="224" y="0" type="line"/>
			<point x="256" y="0" type="line"/>
			<point x="256" y="354" type="line"/>
			<point x="291" y="360"/>
			<point x="347" y="366"/>
			<point x="394" y="366" type="curve" smooth="yes"/>
			<point x="511" y="366"/>
			<point x="574" y="322"/>
			<point x="574" y="202" type="curve" smooth="yes"/>
			<point x="574" y="0" type="line"/>
			<point x="606" y="0" type="line"/>
			<point x="606" y="202" type="line" smooth="yes"/>
			<point x="606" y="340"/>
			<point x="538" y="396"/>
			<point x="396" y="396" type="curve" smooth="yes"/>
			<point x="348" y="396"/>
			<point x="293" y="390"/>
			<point x="256" y="384" type="curve"/>
			<point x="256" y="632" type="line"/>
			<point x="504" y="632" type="line"/>
			<point x="504" y="660" type="line"/>
			<point x="30" y="660" type="line"/>
			<point x="30" y="632" type="line"/>
			<point x="224" y="632" type="line"/>
		</contour>
	</outline>
</glyph>
<glyph name="Shcha" format="2">
	<unicode hex="0429"/>
	<advance width="842"/>
	<outline>
		<contour>
			<point x="774" y="-188" type="line"/>
			<point x="800" y="-188" type="line"/>
			<point x="806" y="12" type="line"/>
			<point x="806" y="28" type="line"/>
			<point x="728" y="28" type="line"/>
			<point x="728" y="0" type="line"/>
			<point x="774" y="0" type="line"/>
		</contour>
		<component base="Sha"/>
	</outline>
</glyph>
<glyph name="Yu" format="2">
	<unicode hex="042E"/>
	<advance width="874"/>
	<outline>
		<contour>
			<point x="100" y="0" type="line"/>
			<point x="132" y="0" type="line"/>
			<point x="132" y="338" type="line"/>
			<point x="322" y="338" type="line"/>
			<point x="322" y="366" type="line"/>
			<point x="132" y="366" type="line"/>
			<point x="132" y="660" type="line"/>
			<point x="100" y="660" type="line"/>
		</contour>
		<contour>
			<point x="562" y="-12" type="curve" smooth="yes"/>
			<point x="712" y="-12"/>
			<point x="818" y="124"/>
			<point x="818" y="332" type="curve" smooth="yes"/>
			<point x="818" y="540"/>
			<point x="712" y="672"/>
			<point x="562" y="672" type="curve" smooth="yes"/>
			<point x="412" y="672"/>
			<point x="308" y="540"/>
			<point x="308" y="332" type="curve" smooth="yes"/>
			<point x="308" y="124"/>
			<point x="412" y="-12"/>
		</contour>
		<contour>
			<point x="562" y="18" type="curve" smooth="yes"/>
			<point x="428" y="18"/>
			<point x="340" y="142"/>
			<point x="340" y="332" type="curve" smooth="yes"/>
			<point x="340" y="522"/>
			<point x="428" y="642"/>
			<point x="562" y="642" type="curve" smooth="yes"/>
			<point x="696" y="642"/>
			<point x="784" y="522"/>
			<point x="784" y="332" type="curve" smooth="yes"/>
			<point x="784" y="142"/>
			<point x="696" y="18"/>
		</contour>
	</outline>
	<anchor name="aboveUC" x="418" y="682"/>
</glyph>
<glyph name="ghe" format="2">
	<unicode hex="0433"/>
	<advance width="394"/>
	<outline>
		<contour>
			<point x="96" y="0" type="line"/>
			<point x="126" y="0" type="line"/>
			<point x="126" y="450" type="line"/>
			<point x="368" y="450" type="line"/>
			<point x="368" y="478" type="line"/>
			<point x="96" y="478" type="line"/>
		</contour>
	</outline>
	<anchor name="aboveLC" x="250" y="502"/>
</glyph>
<glyph name="em" format="2">
	<unicode hex="043C"/>
	<advance width="612"/>
	<outline>
		<contour>
			<point x="96" y="0" type="line"/>
			<point x="126" y="0" type="line"/>
			<point x="126" y="292" type="line" smooth="yes"/>
			<point x="126" y="327"/>
			<point x="124" y="376"/>
			<point x="122" y="422" type="curve"/>
			<point x="126" y="422" type="line"/>
			<point x="140" y="388"/>
			<point x="154" y="358"/>
			<point x="168" y="326" type="curve" smooth="yes"/>
			<point x="290" y="48" type="line"/>
			<point x="324" y="48" type="line"/>
			<point x="444" y="326" type="line" smooth="yes"/>
			<point x="458" y="358"/>
			<point x="472" y="388"/>
			<point x="486" y="422" type="curve"/>
			<point x="490" y="422" type="line"/>
			<point x="488" y="376"/>
			<point x="486" y="327"/>
			<point x="486" y="292" type="curve" smooth="yes"/>
			<point x="486" y="0" type="line"/>
			<point x="516" y="0" type="line"/>
			<point x="516" y="478" type="line"/>
			<point x="480" y="478" type="line"/>
			<point x="360" y="204" type="line"/>
			<point x="345" y="163"/>
			<point x="326" y="121"/>
			<point x="308" y="79" type="curve"/>
			<point x="304" y="79" type="line"/>
			<point x="288" y="121"/>
			<point x="270" y="163"/>
			<point x="254" y="204" type="curve" smooth="yes"/>
			<point x="132" y="478" type="line"/>
			<point x="96" y="478" type="line"/>
		</contour>
	</outline>
</glyph>
<glyph name="pe" format="2">
	<unicode hex="043F"/>
	<advance width="536"/>
	<outline>
		<contour>
			<point x="96" y="0" type="line"/>
			<point x="126" y="0" type="line"/>
			<point x="126" y="450" type="line"/>
			<point x="410" y="450" type="line"/>
			<point x="410" y="0" type="line"/>
			<point x="440" y="0" type="line"/>
			<point x="440" y="478" type="line"/>
			<point x="96" y="478" type="line"/>
		</contour>
	</outline>
</glyph>
<glyph name="ef" format="2">
	<unicode hex="0444"/>
	<advance width="698"/>
	<outline>
		<contour>
			<point x="334" y="-222" type="line"/>
			<point x="364" y="-222" type="line"/>
			<point x="364" y="-42" type="line"/>
			<point x="364" y="30" type="line"/>
			<point x="399" y="4"/>
			<point x="435" y="-12"/>
			<point x="466" y="-12" type="curve" smooth="yes"/>
			<point x="564" y="-12"/>
			<point x="644" y="84"/>
			<point x="644" y="246" type="curve" smooth="yes"/>
			<point x="644" y="394"/>
			<point x="588" y="490"/>
			<point x="472" y="490" type="curve" smooth="yes"/>
			<point x="435" y="490"/>
			<point x="396" y="474"/>
			<point x="364" y="448" type="curve"/>
			<point x="364" y="520" type="line"/>
			<point x="364" y="722" type="line"/>
			<point x="334" y="722" type="line"/>
			<point x="334" y="520" type="line"/>
			<point x="334" y="449" type="line"/>
			<point x="301" y="472"/>
			<point x="269" y="490"/>
			<point x="232" y="490" type="curve" smooth="yes"/>
			<point x="132" y="490"/>
			<point x="54" y="392"/>
			<point x="54" y="238" type="curve" smooth="yes"/>
			<point x="54" y="76"/>
			<point x="124" y="-12"/>
			<point x="232" y="-12" type="curve" smooth="yes"/>
			<point x="274" y="-12"/>
			<point x="306" y="6"/>
			<point x="334" y="30" type="curve"/>
			<point x="334" y="-42" type="line"/>
		</contour>
		<contour>
			<point x="234" y="16" type="curve" smooth="yes"/>
			<point x="139" y="16"/>
			<point x="86" y="106"/>
			<point x="86" y="238" type="curve" smooth="yes"/>
			<point x="86" y="362"/>
			<point x="146" y="462"/>
			<point x="230" y="462" type="curve" smooth="yes"/>
			<point x="265" y="462"/>
			<point x="299" y="451"/>
			<point x="334" y="418" type="curve"/>
			<point x="334" y="62" type="line"/>
			<point x="298" y="27"/>
			<point x="268" y="16"/>
		</contour>
		<contour>
			<point x="468" y="16" type="curve" smooth="yes"/>
			<point x="442" y="16"/>
			<point x="402" y="25"/>
			<point x="364" y="60" type="curve"/>
			<point x="364" y="418" type="line"/>
			<point x="402" y="452"/>
			<point x="438" y="462"/>
			<point x="470" y="462" type="curve" smooth="yes"/>
			<point x="573" y="462"/>
			<point x="612" y="368"/>
			<point x="612" y="246" type="curve" smooth="yes"/>
			<point x="612" y="112"/>
			<point x="554" y="16"/>
		</contour>
	</outline>
</glyph>
<glyph name="soft" format="2">
	<unicode hex="044C"/>
	<advance width="470"/>
	<outline>
		<contour>
			<point x="96" y="0" type="line"/>
			<point x="246" y="0" type="line" smooth="yes"/>
			<point x="358" y="0"/>
			<point x="424" y="50"/>
			<point x="424" y="142" type="curve" smooth="yes"/>
			<point x="424" y="234"/>
			<point x="358" y="282"/>
			<point x="246" y="282" type="curve" smooth="yes"/>
			<point x="126" y="282" type="line"/>
			<point x="126" y="478" type="line"/>
			<point x="96" y="478" type="line"/>
		</contour>
		<contour>
			<point x="126" y="28" type="line"/>
			<point x="126" y="254" type="line"/>
			<point x="236" y="254" type="line" smooth="yes"/>
			<point x="341" y="254"/>
			<point x="392" y="221"/>
			<point x="392" y="142" type="curve" smooth="yes"/>
			<point x="392" y="63"/>
			<point x="341" y="28"/>
			<point x="236" y="28" type="curve" smooth="yes"/>
		</contour>
	</outline>
</glyph>
<glyph name="ghestroke" format="2">
	<unicode hex="0493"/>
	<advance width="398"/>
	<outline>
		<contour>
			<point x="34" y="238" type="line"/>
			<point x="274" y="238" type="line"/>
			<point x="274" y="266" type="line"/>
			<point x="100" y="266" type="line"/>
			<point x="34" y="262" type="line"/>
		</contour>
		<component base="ghe" xOffset="4"/>
	</outline>
</glyph>
<glyph name="Zedescender" format="2">
	<unicode hex="0498"/>
	<advance width="546"/>
	<outline>
		<contour>
			<point x="262" y="-188" type="line"/>
			<point x="288" y="-188" type="line"/>
			<point x="294" y="12" type="line"/>
			<point x="262" y="0" type="line"/>
		</contour>
		<component base="Ze"/>
	</outline>
</glyph>
<glyph name="Endescender" format="2">
	<unicode hex="04A2"/>
	<advance width="638"/>
	<outline>
		<contour>
			<point x="570" y="-188" type="line"/>
			<point x="596" y="-188" type="line"/>
			<point x="602" y="12" type="line"/>
			<point x="602" y="28" type="line"/>
			<point x="524" y="28" type="line"/>
			<point x="524" y="0" type="line"/>
			<point x="570" y="0" type="line"/>
		</contour>
		<component base="H"/>
	</outline>
</glyph>
<glyph name="Hadescender" format="2">
	<unicode hex="04B2"/>
	<advance width="508"/>
	<outline>
		<contour>
			<point x="440" y="-188" type="line"/>
			<point x="466" y="-188" type="line"/>
			<point x="472" y="12" type="line"/>
			<point x="472" y="28" type="line"/>
			<point x="416" y="28" type="line"/>
			<point x="416" y="0" type="line"/>
			<point x="440" y="0" type="line"/>
		</contour>
		<component base="X"/>
	</outline>
</glyph>
<glyph name="hadescender" format="2">
	<unicode hex="04B3"/>
	<advance width="428"/>
	<outline>
		<contour>
			<point x="372" y="-172" type="line"/>
			<point x="398" y="-172" type="line"/>
			<point x="402" y="12" type="line"/>
			<point x="402" y="28" type="line"/>
			<point x="348" y="28" type="line"/>
			<point x="348" y="0" type="line"/>
			<point x="372" y="0" type="line"/>
		</contour>
		<component base="x"/>
	</outline>
</glyph>
<glyph name="Ghedescender" format="2">
	<unicode hex="04F6"/>
	<advance width="480"/>
	<outline>
		<contour>
			<point x="168" y="-188" type="line"/>
			<point x="194" y="-188" type="line"/>
			<point x="200" y="12" type="line"/>
			<point x="200" y="28" type="line"/>
			<point x="122" y="28" type="line"/>
			<point x="122" y="0" type="line"/>
			<point x="168" y="0" type="line"/>
		</contour>
		<component base="Ghe"/>
	</outline>
</glyph>
<glyph name="A.sups" format="2">
	<unicode hex="1D2C"/>
	<advance width="343"/>
	<outline>
		<contour>
			<point x="3" y="410" type="line"/>
			<point x="32" y="410" type="line"/>
			<point x="122" y="665" type="line" smooth="yes"/>
			<point x="140" y="717"/>
			<point x="155" y="761"/>
			<point x="171" y="814" type="curve"/>
			<point x="173" y="814" type="line"/>
			<point x="189" y="763"/>
			<point x="204" y="718"/>
			<point x="222" y="665" type="curve" smooth="yes"/>
			<point x="310" y="410" type="line"/>
			<point x="341" y="410" type="line"/>
			<point x="187" y="842" type="line"/>
			<point x="158" y="842" type="line"/>
		</contour>
		<contour>
			<point x="74" y="559" type="line"/>
			<point x="269" y="559" type="line"/>
			<point x="269" y="584" type="line"/>
			<point x="74" y="584" type="line"/>
		</contour>
	</outline>
</glyph>
<glyph name="E.sups" format="2">
	<unicode hex="1D31"/>
	<advance width="337"/>
	<outline>
		<contour>
			<point x="63" y="410" type="line"/>
			<point x="308" y="410" type="line"/>
			<point x="308" y="435" type="line"/>
			<point x="92" y="435" type="line"/>
			<point x="92" y="628" type="line"/>
			<point x="269" y="628" type="line"/>
			<point x="269" y="653" type="line"/>
			<point x="92" y="653" type="line"/>
			<point x="92" y="817" type="line"/>
			<point x="302" y="817" type="line"/>
			<point x="302" y="842" type="line"/>
			<point x="63" y="842" type="line"/>
		</contour>
	</outline>
</glyph>
<glyph name="I.sups" format="2">
	<unicode hex="1D35"/>
	<advance width="155"/>
	<outline>
		<contour>
			<point x="63" y="410" type="line"/>
			<point x="92" y="410" type="line"/>
			<point x="92" y="842" type="line"/>
			<point x="63" y="842" type="line"/>
		</contour>
	</outline>
</glyph>
<glyph name="v.sups" format="2">
	<unicode hex="1D5B"/>
	<advance width="294"/>
	<outline>
		<contour>
			<point x="128" y="410" type="line"/>
			<point x="164" y="410" type="line"/>
			<point x="286" y="726" type="line"/>
			<point x="256" y="726" type="line"/>
			<point x="184" y="530" type="line"/>
			<point x="148" y="438" type="line"/>
			<point x="144" y="438" type="line"/>
			<point x="110" y="530" type="line"/>
			<point x="38" y="726" type="line"/>
			<point x="8" y="726" type="line"/>
		</contour>
	</outline>
</glyph>
<glyph name="ginsular" format="2">
	<unicode hex="1D79"/>
	<advance width="460"/>
	<outline>
		<contour>
			<point x="244" y="-234" type="curve" smooth="yes"/>
			<point x="380" y="-234"/>
			<point x="450" y="-164"/>
			<point x="450" y="-74" type="curve" smooth="yes"/>
			<point x="450" y="12"/>
			<point x="402" y="40"/>
			<point x="288" y="88" type="curve" smooth="yes"/>
			<point x="170" y="138"/>
			<point x="112" y="198"/>
			<point x="112" y="292" type="curve" smooth="yes"/>
			<point x="112" y="366"/>
			<point x="172" y="450"/>
			<point x="308" y="450" type="curve" smooth="yes"/>
			<point x="432" y="450" type="line"/>
			<point x="432" y="478" type="line"/>
			<point x="100" y="478" type="line"/>
			<point x="34" y="472" type="line"/>
			<point x="34" y="450" type="line"/>
			<point x="186" y="450" type="line"/>
			<point x="186" y="446" type="line"/>
			<point x="124" y="420"/>
			<point x="82" y="363"/>
			<point x="82" y="290" type="curve" smooth="yes"/>
			<point x="82" y="194"/>
			<point x="134" y="146"/>
			<point x="194" y="102" type="curve"/>
			<point x="194" y="98" type="line"/>
			<point x="114" y="56"/>
			<point x="54" y="-2"/>
			<point x="54" y="-84" type="curve" smooth="yes"/>
			<point x="54" y="-176"/>
			<point x="134" y="-234"/>
		</contour>
		<contour>
			<point x="244" y="-206" type="curve" smooth="yes"/>
			<point x="154" y="-206"/>
			<point x="86" y="-162"/>
			<point x="86" y="-84" type="curve" smooth="yes"/>
			<point x="86" y="-10"/>
			<point x="130" y="38"/>
			<point x="218" y="86" type="curve"/>
			<point x="330" y="36"/>
			<point x="418" y="20"/>
			<point x="418" y="-76" type="curve" smooth="yes"/>
			<point x="418" y="-146"/>
			<point x="364" y="-206"/>
		</contour>
	</outline>
	<anchor name="aboveLC" x="250" y="502"/>
	<anchor name="belowLC" x="240" y="-222"/>
</glyph>
<glyph name="upsilonstroke" format="2">
	<unicode hex="1D7F"/>
	<advance width="528"/>
	<outline>
		<contour>
			<point x="4" y="238" type="line"/>
			<point x="524" y="238" type="line"/>
			<point x="524" y="266" type="line"/>
			<point x="100" y="266" type="line"/>
			<point x="4" y="262" type="line"/>
		</contour>
		<component base="upsilonlatin"/>
	</outline>
	<anchor name="aboveLC" x="264" y="502"/>
	<anchor name="belowLC" x="264" y="-22"/>
</glyph>
<glyph name="mhook.sups" format="2">
	<unicode hex="1DAC"/>
	<advance width="544"/>
	<outline>
		<contour>
			<point x="418" y="258" type="curve" smooth="yes"/>
			<point x="464" y="258"/>
			<point x="488" y="286"/>
			<point x="488" y="356" type="curve" smooth="yes"/>
			<point x="488" y="614" type="line" smooth="yes"/>
			<point x="488" y="684"/>
			<point x="462" y="734"/>
			<point x="392" y="734" type="curve" smooth="yes"/>
			<point x="350" y="734"/>
			<point x="312" y="704"/>
			<point x="280" y="670" type="curve"/>
			<point x="268" y="714"/>
			<point x="236" y="734"/>
			<point x="192" y="734" type="curve" smooth="yes"/>
			<point x="150" y="734"/>
			<point x="118" y="710"/>
			<point x="90" y="678" type="curve"/>
			<point x="86" y="678" type="line"/>
			<point x="82" y="726" type="line"/>
			<point x="60" y="726" type="line"/>
			<point x="60" y="410" type="line"/>
			<point x="88" y="410" type="line"/>
			<point x="88" y="648" type="line"/>
			<point x="128" y="690"/>
			<point x="156" y="708"/>
			<point x="186" y="708" type="curve" smooth="yes"/>
			<point x="244" y="708"/>
			<point x="260" y="668"/>
			<point x="260" y="608" type="curve" smooth="yes"/>
			<point x="260" y="410" type="line"/>
			<point x="288" y="410" type="line"/>
			<point x="288" y="648" type="line"/>
			<point x="328" y="690"/>
			<point x="356" y="708"/>
			<point x="386" y="708" type="curve" smooth="yes"/>
			<point x="444" y="708"/>
			<point x="460" y="668"/>
			<point x="460" y="608" type="curve" smooth="yes"/>
			<point x="460" y="352" type="line" smooth="yes"/>
			<point x="460" y="312"/>
			<point x="452" y="286"/>
			<point x="416" y="286" type="curve" smooth="yes"/>
			<point x="402" y="286"/>
			<point x="396" y="288"/>
			<point x="386" y="292" type="curve"/>
			<point x="378" y="266" type="line"/>
			<point x="394" y="260"/>
			<point x="402" y="258"/>
		</contour>
	</outline>
</glyph>
<glyph name="emdash" format="2">
	<unicode hex="2014"/>
	<advance width="800"/>
	<outline>
		<contour>
			<point x="40" y="236" type="line"/>
			<point x="760" y="236" type="line"/>
			<point x="760" y="264" type="line"/>
			<point x="40" y="264" type="line"/>
		</contour>
	</outline>
</glyph>
<glyph name="primereversed" format="2">
	<unicode hex="2035"/>
	<advance width="208"/>
	<outline>
		<contour>
			<point x="106" y="498" type="line"/>
			<point x="126" y="500" type="line"/>
			<point x="102" y="694" type="line"/>
			<point x="74" y="692" type="line"/>
			<point x="82" y="630" type="line"/>
		</contour>
	</outline>
</glyph>
<glyph name="i.sups" format="2">
	<unicode hex="2071"/>
	<advance width="148"/>
	<outline>
		<contour>
			<point x="60" y="410" type="line"/>
			<point x="88" y="410" type="line"/>
			<point x="88" y="726" type="line"/>
			<point x="60" y="726" type="line"/>
		</contour>
		<contour>
			<point x="76" y="802" type="curve" smooth="yes"/>
			<point x="92" y="802"/>
			<point x="104" y="814"/>
			<point x="104" y="830" type="curve" smooth="yes"/>
			<point x="104" y="846"/>
			<point x="92" y="858"/>
			<point x="76" y="858" type="curve" smooth="yes"/>
			<point x="60" y="858"/>
			<point x="48" y="846"/>
			<point x="48" y="830" type="curve" smooth="yes"/>
			<point x="48" y="814"/>
			<point x="60" y="802"/>
		</contour>
	</outline>
</glyph>
<glyph name="peso" format="2">
	<unicode hex="20B1"/>
	<advance width="472"/>
	<outline>
		<contour>
			<point x="98" y="0" type="line"/>
			<point x="128" y="0" type="line"/>
			<point x="128" y="270" type="line"/>
			<point x="178" y="270" type="line" smooth="yes"/>
			<point x="304" y="270"/>
			<point x="390" y="332"/>
			<point x="390" y="462" type="curve" smooth="yes"/>
			<point x="390" y="590"/>
			<point x="304" y="640"/>
			<point x="178" y="640" type="curve" smooth="yes"/>
			<point x="98" y="640" type="line"/>
		</contour>
		<contour>
			<point x="128" y="298" type="line"/>
			<point x="128" y="612" type="line"/>
			<point x="166" y="612" type="line" smooth="yes"/>
			<point x="290" y="612"/>
			<point x="358" y="574"/>
			<point x="358" y="462" type="curve" smooth="yes"/>
			<point x="358" y="350"/>
			<point x="290" y="298"/>
			<point x="166" y="298" type="curve" smooth="yes"/>
		</contour>
		<contour>
			<point x="16" y="388" type="line"/>
			<point x="456" y="388" type="line"/>
			<point x="456" y="416" type="line"/>
			<point x="98" y="416" type="line"/>
			<point x="16" y="412" type="line"/>
		</contour>
		<contour>
			<point x="16" y="496" type="line"/>
			<point x="456" y="496" type="line"/>
			<point x="456" y="524" type="line"/>
			<point x="98" y="524" type="line"/>
			<point x="16" y="520" type="line"/>
		</contour>
	</outline>
</glyph>
<glyph name="arrowupright" format="2">
	<unicode hex="2197"/>
	<advance width="620"/>
	<outline>
		<contour>
			<point x="125" y="47" type="line"/>
			<point x="482" y="403" type="line"/>
			<point x="475" y="68" type="line"/>
			<point x="503" y="68" type="line"/>
			<point x="506" y="444" type="line"/>
			<point x="503" y="447" type="line"/>
			<point x="127" y="444" type="line"/>
			<point x="127" y="416" type="line"/>
			<point x="462" y="423" type="line"/>
			<point x="106" y="66" type="line"/>
		</contour>
	</outline>
</glyph>
<glyph name="arrowdblup" format="2">
	<unicode hex="21D1"/>
	<advance width="620"/>
	<outline>
		<contour>
			<point x="64" y="238" type="line"/>
			<point x="308" y="492" type="line"/>
			<point x="312" y="492" type="line"/>
			<point x="556" y="238" type="line"/>
			<point x="576" y="258" type="line"/>
			<point x="312" y="526" type="line"/>
			<point x="308" y="526" type="line"/>
			<point x="44" y="258" type="line"/>
		</contour>
		<contour>
			<point x="396" y="-24" type="line"/>
			<point x="424" y="-24" type="line"/>
			<point x="424" y="410" type="line"/>
			<point x="396" y="410" type="line"/>
		</contour>
		<contour>
			<point x="196" y="-24" type="line"/>
			<point x="224" y="-24" type="line"/>
			<point x="224" y="410" type="line"/>
			<point x="196" y="410" type="line"/>
		</contour>
	</outline>
</glyph>
<glyph name="shift" format="2">
	<unicode hex="21E7"/>
	<advance width="800"/>
	<outline>
		<contour>
			<point x="242" y="-46" type="line"/>
			<point x="558" y="-46" type="line"/>
			<point x="558" y="334" type="line"/>
			<point x="774" y="334" type="line"/>
			<point x="776" y="340" type="line"/>
			<point x="402" y="708" type="line"/>
			<point x="398" y="708" type="line"/>
			<point x="24" y="340" type="line"/>
			<point x="26" y="334" type="line"/>
			<point x="242" y="334" type="line"/>
		</contour>
		<contour>
			<point x="272" y="-20" type="line"/>
			<point x="272" y="360" type="line"/>
			<point x="92" y="360" type="line"/>
			<point x="90" y="364" type="line"/>
			<point x="398" y="668" type="line"/>
			<point x="402" y="668" type="line"/>
			<point x="710" y="364" type="line"/>
			<point x="708" y="360" type="line"/>
			<point x="528" y="360" type="line"/>
			<point x="528" y="-20" type="line"/>
		</contour>
	</outline>
</glyph>
<glyph name="Delta" format="2">
	<unicode hex="2206"/>
	<unicode hex="0394"/>
	<advance width="546"/>
	<outline>
		<contour>
			<point x="26" y="0" type="line"/>
			<point x="520" y="0" type="line"/>
			<point x="520" y="18" type="line"/>
			<point x="288" y="660" type="line"/>
			<point x="258" y="660" type="line"/>
			<point x="26" y="18" type="line"/>
		</contour>
		<contour>
			<point x="62" y="28" type="line"/>
			<point x="192" y="392" type="line"/>
			<point x="272" y="616" type="line"/>
			<point x="276" y="616" type="line"/>
			<point x="354" y="392" type="line"/>
			<point x="484" y="28" type="line"/>
		</contour>
	</outline>
	<anchor name="aboveUC" x="270" y="682"/>
</glyph>
<glyph name="ceilingleft" format="2">
	<unicode hex="231C"/>
	<advance width="270"/>
	<outline>
		<contour>
			<point x="100" y="0" type="line"/>
			<point x="124" y="0" type="line"/>
			<point x="124" y="666" type="line"/>
			<point x="252" y="666" type="line"/>
			<point x="252" y="688" type="line"/>
			<point x="100" y="688" type="line"/>
		</contour>
	</outline>
</glyph>
<glyph name="trianglesmallleftwhite" format="2">
	<unicode hex="25C3"/>
	<advance width="272"/>
	<outline>
		<contour>
			<point x="242" y="121" type="line"/>
			<point x="244" y="121" type="line"/>
			<point x="244" y="405" type="line"/>
			<point x="242" y="405" type="line"/>
			<point x="-4" y="264" type="line"/>
			<point x="-4" y="262" type="line"/>
		</contour>
		<contour>
			<point x="222" y="159" type="line"/>
			<point x="40" y="263" type="line"/>
			<point x="222" y="367" type="line"/>
		</contour>
	</outline>
</glyph>
<glyph name="checkbox" format="2">
	<unicode hex="2610"/>
	<advance width="792"/>
	<outline>
		<contour>
			<point x="74" y="-10" type="line"/>
			<point x="676" y="-10" type="line"/>
			<point x="718" y="40" type="line"/>
			<point x="718" y="668" type="line"/>
			<point x="124" y="668" type="line"/>
			<point x="74" y="628" type="line"/>
		</contour>
		<contour>
			<point x="104" y="20" type="line"/>
			<point x="104" y="606" type="line"/>
			<point x="654" y="606" type="line"/>
			<point x="654" y="20" type="line"/>
		</contour>
	</outline>
</glyph>
<glyph name="check" format="2">
	<unicode hex="2713"/>
	<advance width="584"/>
	<outline>
		<contour>
			<point x="140" y="-20" type="curve"/>
			<point x="184" y="-14" type="line"/>
			<point x="256" y="240"/>
			<point x="414" y="490"/>
			<point x="590" y="654" type="curve"/>
			<point x="566" y="680" type="line"/>
			<point x="392" y="514"/>
			<point x="232" y="250"/>
			<point x="162" y="14" type="curve"/>
			<point x="158" y="14" type="line"/>
			<point x="128" y="108"/>
			<point x="76" y="208"/>
			<point x="20" y="291" type="curve"/>
			<point x="-6" y="272" type="line"/>
			<point x="52" y="188"/>
			<point x="102" y="87"/>
		</contour>
	</outline>
</glyph>
<glyph name="xballot" format="2">
	<unicode hex="2717"/>
	<advance width="494"/>
	<outline>
		<contour>
			<point x="74" y="-14" type="line"/>
			<point x="157" y="243"/>
			<point x="315" y="502"/>
			<point x="496" y="660" type="curve"/>
			<point x="476" y="680" type="line"/>
			<point x="298" y="520"/>
			<point x="126" y="249"/>
			<point x="46" y="-8" type="curve"/>
		</contour>
		<contour>
			<point x="392" y="10" type="curve"/>
			<point x="420" y="18" type="line"/>
			<point x="364" y="270"/>
			<point x="263" y="498"/>
			<point x="150" y="672" type="curve"/>
			<point x="124" y="653" type="line"/>
			<point x="240" y="478"/>
			<point x="332" y="258"/>
		</contour>
	</outline>
</glyph>
<glyph name="quoteleftheavy" format="2">
	<unicode hex="275B"/>
	<advance width="360"/>
	<outline>
		<contour>
			<point x="190" y="204" type="curve" smooth="yes"/>
			<point x="280" y="204"/>
			<point x="342" y="272"/>
			<point x="342" y="370" type="curve" smooth="yes"/>
			<point x="342" y="460"/>
			<point x="276" y="516"/>
			<point x="192" y="516" type="curve" smooth="yes"/>
			<point x="128" y="516"/>
			<point x="76" y="484"/>
			<point x="50" y="442" type="curve"/>
			<point x="81" y="366" type="line"/>
			<point x="60" y="444" type="line"/>
			<point x="60" y="558"/>
			<point x="126" y="638"/>
			<point x="240" y="682" type="curve"/>
			<point x="230" y="706" type="line"/>
			<point x="88" y="656"/>
			<point x="18" y="546"/>
			<point x="18" y="404" type="curve" smooth="yes"/>
			<point x="18" y="282"/>
			<point x="82" y="204"/>
		</contour>
	</outline>
</glyph>
<glyph name="bracketleftwhite" format="2">
	<unicode hex="27E6"/>
	<advance width="330"/>
	<outline>
		<contour>
			<point x="100" y="-152" type="line"/>
			<point x="312" y="-152" type="line"/>
			<point x="312" y="-130" type="line"/>
			<point x="188" y="-130" type="line"/>
			<point x="188" y="686" type="line"/>
			<point x="312" y="686" type="line"/>
			<point x="312" y="708" type="line"/>
			<point x="100" y="708" type="line"/>
		</contour>
		<contour>
			<point x="124" y="-130" type="line"/>
			<point x="124" y="686" type="line"/>
			<point x="164" y="686" type="line"/>
			<point x="164" y="-130" type="line"/>
		</contour>
	</outline>
</glyph>
<glyph name="astroke" format="2">
	<unicode hex="2C65"/>
	<advance width="486"/>
	<outline>
		<contour>
			<point x="160" y="-42" type="line"/>
			<point x="396" y="508" type="line"/>
			<point x="370" y="518" type="line"/>
			<point x="134" y="-32" type="line"/>
		</contour>
		<component base="a"/>
	</outline>
	<anchor name="aboveLC" x="260" y="502"/>
	<anchor name="belowLC" x="240" y="-22"/>
</glyph>
<glyph name="brackhalfbotright" format="2">
	<unicode hex="2E25"/>
	<advance width="270"/>
	<outline>
		<contour>
			<point x="18" y="-152" type="line"/>
			<point x="170" y="-152" type="line"/>
			<point x="170" y="278" type="line"/>
			<point x="146" y="278" type="line"/>
			<point x="146" y="-130" type="line"/>
			<point x="18" y="-130" type="line"/>
		</contour>
	</outline>
</glyph>
<glyph name="rrotunda" format="2">
	<unicode hex="A75B"/>
	<advance width="344"/>
	<outline>
		<contour>
			<point x="250" y="-12" type="curve" smooth="yes"/>
			<point x="274" y="-12"/>
			<point x="292" y="-8"/>
			<point x="306" y="-2" type="curve"/>
			<point x="298" y="24" type="line"/>
			<point x="286" y="20"/>
			<point x="272" y="16"/>
			<point x="252" y="16" type="curve" smooth="yes"/>
			<point x="179" y="16"/>
			<point x="104" y="44"/>
			<point x="84" y="106" type="curve"/>
			<point x="216" y="170"/>
			<point x="296" y="247"/>
			<point x="296" y="362" type="curve" smooth="yes"/>
			<point x="296" y="444"/>
			<point x="244" y="490"/>
			<point x="164" y="490" type="curve" smooth="yes"/>
			<point x="106" y="490"/>
			<point x="63" y="462"/>
			<point x="24" y="426" type="curve"/>
			<point x="42" y="408" type="line"/>
			<point x="73" y="438"/>
			<point x="114" y="462"/>
			<point x="164" y="462" type="curve" smooth="yes"/>
			<point x="227" y="462"/>
			<point x="264" y="424"/>
			<point x="264" y="362" type="curve" smooth="yes"/>
			<point x="264" y="264"/>
			<point x="202" y="192"/>
			<point x="50" y="120" type="curve"/>
			<point x="78" y="14"/>
			<point x="166" y="-12"/>
		</contour>
	</outline>
	<anchor name="aboveLC" x="170" y="502"/>
	<anchor name="belowLC" x="170" y="-22"/>
</glyph>
<glyph name="Dinsular" format="2">
	<unicode hex="A779"/>
	<advance width="648"/>
	<outline>
		<contour>
			<point x="324" y="-12" type="curve" smooth="yes"/>
			<point x="480" y="-12"/>
			<point x="592" y="124"/>
			<point x="592" y="332" type="curve" smooth="yes"/>
			<point x="592" y="542"/>
			<point x="474" y="660"/>
			<point x="304" y="660" type="curve" smooth="yes"/>
			<point x="30" y="660" type="line"/>
			<point x="30" y="632" type="line"/>
			<point x="212" y="632" type="line"/>
			<point x="212" y="628" type="line"/>
			<point x="124" y="580"/>
			<point x="56" y="472"/>
			<point x="56" y="312" type="curve" smooth="yes"/>
			<point x="56" y="110"/>
			<point x="168" y="-12"/>
		</contour>
		<contour>
			<point x="324" y="18" type="curve" smooth="yes"/>
			<point x="184" y="18"/>
			<point x="90" y="128"/>
			<point x="90" y="312" type="curve" smooth="yes"/>
			<point x="90" y="482"/>
			<point x="180" y="630"/>
			<point x="314" y="630" type="curve" smooth="yes"/>
			<point x="458" y="630"/>
			<point x="558" y="522"/>
			<point x="558" y="332" type="curve" smooth="yes"/>
			<point x="558" y="143"/>
			<point x="464" y="18"/>
		</contour>
	</outline>
	<anchor name="aboveUC" x="330" y="682"/>
	<anchor name="belowLC" x="310" y="-22"/>
</glyph>
<glyph name="ginsularturned" format="2">
	<unicode hex="A77F"/>
	<advance width="460"/>
	<outline>
		<contour>
			<point x="18" y="-222" type="line"/>
			<point x="426" y="-222" type="line"/>
			<point x="426" y="-194" type="line"/>
			<point x="274" y="-194" type="line"/>
			<point x="274" y="-190" type="line"/>
			<point x="336" y="-164"/>
			<point x="378" y="-107"/>
			<point x="378" y="-34" type="curve" smooth="yes"/>
			<point x="378" y="62"/>
			<point x="326" y="110"/>
			<point x="266" y="154" type="curve"/>
			<point x="266" y="158" type="line"/>
			<point x="346" y="200"/>
			<point x="406" y="258"/>
			<point x="406" y="340" type="curve" smooth="yes"/>
			<point x="406" y="432"/>
			<point x="326" y="490"/>
			<point x="216" y="490" type="curve" smooth="yes"/>
			<point x="80" y="490"/>
			<point x="10" y="420"/>
			<point x="10" y="330" type="curve" smooth="yes"/>
			<point x="10" y="244"/>
			<point x="58" y="216"/>
			<point x="172" y="168" type="curve" smooth="yes"/>
			<point x="290" y="118"/>
			<point x="348" y="58"/>
			<point x="348" y="-36" type="curve" smooth="yes"/>
			<point x="348" y="-110"/>
			<point x="287" y="-192"/>
			<point x="152" y="-194" type="curve" smooth="yes"/>
			<point x="84" y="-194" type="line"/>
			<point x="18" y="-200" type="line"/>
		</contour>
		<contour>
			<point x="242" y="170" type="curve"/>
			<point x="131" y="220"/>
			<point x="42" y="236"/>
			<point x="42" y="332" type="curve" smooth="yes"/>
			<point x="42" y="402"/>
			<point x="96" y="462"/>
			<point x="216" y="462" type="curve" smooth="yes"/>
			<point x="306" y="462"/>
			<point x="374" y="418"/>
			<point x="374" y="340" type="curve" smooth="yes"/>
			<point x="374" y="266"/>
			<point x="328" y="218"/>
		</contour>
	</outline>
	<anchor name="aboveLC" x="220" y="502"/>
	<anchor name="belowLC" x="210" y="-222"/>
</glyph>
<glyph name="lturned" format="2">
	<unicode hex="A781"/>
	<advance width="230"/>
	<outline>
		<contour>
			<point x="104" y="-222" type="line"/>
			<point x="134" y="-222" type="line"/>
			<point x="134" y="422" type="line" smooth="yes"/>
			<point x="134" y="468"/>
			<point x="116" y="486"/>
			<point x="86" y="486" type="curve" smooth="yes"/>
			<point x="76" y="486"/>
			<point x="68" y="484"/>
			<point x="60" y="480" type="curve"/>
			<point x="66" y="456" type="line"/>
			<point x="74" y="458"/>
			<point x="78" y="458"/>
			<point x="82" y="458" type="curve" smooth="yes"/>
			<point x="96" y="458"/>
			<point x="104" y="450"/>
			<point x="104" y="428" type="curve" smooth="yes"/>
		</contour>
	</outline>
	<anchor name="aboveLC" x="100" y="502"/>
	<anchor name="belowLC" x="120" y="-222"/>
</glyph>
<glyph name="Sinsular" format="2">
	<unicode hex="A784"/>
	<advance width="542"/>
	<outline>
		<contour>
			<point x="100" y="-140" type="line"/>
			<point x="132" y="-140" type="line"/>
			<point x="132" y="532" type="line"/>
			<point x="176" y="590"/>
			<point x="254" y="642"/>
			<point x="316" y="642" type="curve" smooth="yes"/>
			<point x="409" y="642"/>
			<point x="462" y="598"/>
			<point x="462" y="448" type="curve" smooth="yes"/>
			<point x="462" y="388" type="line"/>
			<point x="494" y="392" type="line"/>
			<point x="494" y="452" type="line" smooth="yes"/>
			<point x="494" y="614"/>
			<point x="429" y="672"/>
			<point x="318" y="672" type="curve" smooth="yes"/>
			<point x="246" y="672"/>
			<point x="176" y="622"/>
			<point x="132" y="570" type="curve"/>
			<point x="132" y="660" type="line"/>
			<point x="100" y="660" type="line"/>
		</contour>
	</outline>
	<anchor name="aboveUC" x="300" y="682"/>
	<anchor name="belowLC" x="120" y="-142"/>
</glyph>
<glyph name="tinsular" format="2">
	<unicode hex="A787"/>
	<advance width="414"/>
	<outline>
		<contour>
			<point x="246" y="-12" type="curve" smooth="yes"/>
			<point x="308" y="-12"/>
			<point x="354" y="20"/>
			<point x="386" y="52" type="curve"/>
			<point x="370" y="70" type="line"/>
			<point x="338" y="40"/>
			<point x="302" y="16"/>
			<point x="246" y="16" type="curve" smooth="yes"/>
			<point x="160" y="16"/>
			<point x="96" y="82"/>
			<point x="96" y="180" type="curve" smooth="yes"/>
			<point x="96" y="302"/>
			<point x="180" y="450"/>
			<point x="338" y="450" type="curve" smooth="yes"/>
			<point x="390" y="450" type="line"/>
			<point x="390" y="478" type="line"/>
			<point x="96" y="478" type="line"/>
			<point x="30" y="472" type="line"/>
			<point x="30" y="450" type="line"/>
			<point x="222" y="450" type="line"/>
			<point x="222" y="446" type="line"/>
			<point x="148" y="412"/>
			<point x="64" y="316"/>
			<point x="64" y="180" type="curve" smooth="yes"/>
			<point x="64" y="58"/>
			<point x="146" y="-12"/>
		</contour>
	</outline>
	<anchor name="aboveLC" x="230" y="502"/>
	<anchor name="belowLC" x="230" y="-22"/>
</glyph>
<glyph name="tshook" format="2">
	<unicode hex="AB67"/>
	<advance width="590"/>
	<outline>
		<contour>
			<point x="412" y="-234" type="curve" smooth="yes"/>
			<point x="432" y="-234"/>
			<point x="456" y="-228"/>
			<point x="470" y="-222" type="curve"/>
			<point x="462" y="-196" type="line"/>
			<point x="450" y="-200"/>
			<point x="430" y="-206"/>
			<point x="410" y="-206" type="curve" smooth="yes"/>
			<point x="354" y="-206"/>
			<point x="344" y="-160"/>
			<point x="344" y="-98" type="curve" smooth="yes"/>
			<point x="344" y="-6" type="line"/>
			<point x="314" y="8" type="line"/>
			<point x="314" y="-102" type="line" smooth="yes"/>
			<point x="314" y="-194"/>
			<point x="346" y="-234"/>
		</contour>
		<component base="ts"/>
	</outline>
	<anchor name="aboveLC" x="330" y="632"/>
	<anchor name="belowLC" x="350" y="-222"/>
</glyph>
<glyph name="f_f" format="2">
	<unicode hex="FB00"/>
	<advance width="512"/>
	<outline>
		<contour>
			<point x="100" y="0" type="line"/>
			<point x="130" y="0" type="line"/>
			<point x="130" y="572" type="line" smooth="yes"/>
			<point x="130" y="650"/>
			<point x="160" y="696"/>
			<point x="220" y="696" type="curve" smooth="yes"/>
			<point x="242" y="696"/>
			<point x="265" y="692"/>
			<point x="290" y="680" type="curve"/>
			<point x="300" y="706" type="line"/>
			<point x="274" y="718"/>
			<point x="246" y="724"/>
			<point x="222" y="724" type="curve" smooth="yes"/>
			<point x="148" y="724"/>
			<point x="100" y="676"/>
			<point x="100" y="576" type="curve" smooth="yes"/>
		</contour>
		<contour>
			<point x="360" y="0" type="line"/>
			<point x="390" y="0" type="line"/>
			<point x="390" y="592" type="line" smooth="yes"/>
			<point x="390" y="664"/>
			<point x="414" y="706"/>
			<point x="468" y="706" type="curve" smooth="yes"/>
			<point x="486" y="706"/>
			<point x="506" y="702"/>
			<point x="526" y="692" type="curve"/>
			<point x="536" y="718" type="line"/>
			<point x="514" y="728"/>
			<point x="490" y="734"/>
			<point x="470" y="734" type="curve" smooth="yes"/>
			<point x="402" y="734"/>
			<point x="360" y="690"/>
			<point x="360" y="596" type="curve" smooth="yes"/>
		</contour>
		<contour>
			<point x="30" y="450" type="line"/>
			<point x="504" y="450" type="line"/>
			<point x="504" y="478" type="line"/>
			<point x="100" y="478" type="line"/>
			<point x="30" y="474" type="line"/>
		</contour>
	</outline>
</glyph>
<glyph name="creativecommons" format="2">
	<unicode hex="1F16D"/>
	<advance width="740"/>
	<outline>
		<contour>
			<point x="370" y="-12" type="curve" smooth="yes"/>
			<point x="542" y="-12"/>
			<point x="688" y="120"/>
			<point x="688" y="322" type="curve" smooth="yes"/>
			<point x="688" y="522"/>
			<point x="542" y="652"/>
			<point x="370" y="652" type="curve" smooth="yes"/>
			<point x="198" y="652"/>
			<point x="52" y="522"/>
			<point x="52" y="322" type="curve" smooth="yes"/>
			<point x="52" y="120"/>
			<point x="198" y="-12"/>
		</contour>
		<contour>
			<point x="370" y="14" type="curve" smooth="yes"/>
			<point x="216" y="14"/>
			<point x="82" y="138"/>
			<point x="82" y="322" type="curve" smooth="yes"/>
			<point x="82" y="504"/>
			<point x="216" y="626"/>
			<point x="370" y="626" type="curve" smooth="yes"/>
			<point x="524" y="626"/>
			<point x="658" y="504"/>
			<point x="658" y="322" type="curve" smooth="yes"/>
			<point x="658" y="138"/>
			<point x="524" y="14"/>
		</contour>
		<contour>
			<point x="272" y="128" type="curve" smooth="yes"/>
			<point x="317" y="128"/>
			<point x="336" y="148"/>
			<point x="354" y="170" type="curve"/>
			<point x="336" y="188" type="line"/>
			<point x="320" y="170"/>
			<point x="305" y="158"/>
			<point x="274" y="158" type="curve" smooth="yes"/>
			<point x="218" y="158"/>
			<point x="186" y="218"/>
			<point x="186" y="316" type="curve" smooth="yes"/>
			<point x="186" y="416"/>
			<point x="226" y="482"/>
			<point x="274" y="482" type="curve" smooth="yes"/>
			<point x="301" y="482"/>
			<point x="311" y="471"/>
			<point x="328" y="452" type="curve"/>
			<point x="348" y="470" type="line"/>
			<point x="333" y="493"/>
			<point x="311" y="512"/>
			<point x="276" y="512" type="curve" smooth="yes"/>
			<point x="210" y="512"/>
			<point x="152" y="438"/>
			<point x="152" y="316" type="curve" smooth="yes"/>
			<point x="152" y="196"/>
			<point x="202" y="128"/>
		</contour>
		<contour>
			<point x="486" y="128" type="curve" smooth="yes"/>
			<point x="531" y="128"/>
			<point x="550" y="148"/>
			<point x="568" y="170" type="curve"/>
			<point x="550" y="188" type="line"/>
			<point x="534" y="170"/>
			<point x="519" y="158"/>
			<point x="488" y="158" type="curve" smooth="yes"/>
			<point x="432" y="158"/>
			<point x="400" y="218"/>
			<point x="400" y="316" type="curve" smooth="yes"/>
			<point x="400" y="416"/>
			<point x="440" y="482"/>
			<point x="488" y="482" type="curve" smooth="yes"/>
			<point x="515" y="482"/>
			<point x="525" y="471"/>
			<point x="542" y="452" type="curve"/>
			<point x="562" y="470" type="line"/>
			<point x="547" y="493"/>
			<point x="525" y="512"/>
			<point x="490" y="512" type="curve" smooth="yes"/>
			<point x="424" y="512"/>
			<point x="366" y="438"/>
			<point x="366" y="316" type="curve" smooth="yes"/>
			<point x="366" y="196"/>
			<point x="416" y="128"/>
		</contour>
	</outline>
</glyph>
<glyph name="attribution" format="2">
	<unicode hex="1F16F"/>
	<advance width="740"/>
	<outline>
		<contour>
			<point x="370" y="-12" type="curve" smooth="yes"/>
			<point x="542" y="-12"/>
			<point x="688" y="120"/>
			<point x="688" y="322" type="curve" smooth="yes"/>
			<point x="688" y="522"/>
			<point x="542" y="652"/>
			<point x="370" y="652" type="curve" smooth="yes"/>
			<point x="198" y="652"/>
			<point x="52" y="522"/>
			<point x="52" y="322" type="curve" smooth="yes"/>
			<point x="52" y="120"/>
			<point x="198" y="-12"/>
		</contour>
		<contour>
			<point x="370" y="14" type="curve" smooth="yes"/>
			<point x="216" y="14"/>
			<point x="82" y="138"/>
			<point x="82" y="322" type="curve" smooth="yes"/>
			<point x="82" y="504"/>
			<point x="216" y="626"/>
			<point x="370" y="626" type="curve" smooth="yes"/>
			<point x="524" y="626"/>
			<point x="658" y="504"/>
			<point x="658" y="322" type="curve" smooth="yes"/>
			<point x="658" y="138"/>
			<point x="524" y="14"/>
		</contour>
		<contour>
			<point x="370" y="88" type="line"/>
			<point x="430" y="88" type="line"/>
			<point x="434" y="139"/>
			<point x="438" y="184"/>
			<point x="438" y="251" type="curve" smooth="yes"/>
			<point x="438" y="287"/>
			<point x="427" y="293"/>
			<point x="427" y="304" type="curve" smooth="yes"/>
			<point x="427" y="331"/>
			<point x="444" y="346"/>
			<point x="447" y="376" type="curve"/>
			<point x="407" y="380" type="line"/>
			<point x="416" y="310"/>
			<point x="425" y="280"/>
			<point x="438" y="230" type="curve"/>
			<point x="464" y="230"/>
			<point x="484" y="248"/>
			<point x="484" y="276" type="curve" smooth="yes"/>
			<point x="484" y="311"/>
			<point x="480" y="348"/>
			<point x="472" y="380" type="curve" smooth="yes"/>
			<point x="464" y="409"/>
			<point x="451" y="420"/>
			<point x="428" y="426" type="curve" smooth="yes"/>
			<point x="418" y="428"/>
			<point x="396" y="430"/>
			<point x="370" y="430" type="curve" smooth="yes"/>
			<point x="344" y="430"/>
			<point x="322" y="428"/>
			<point x="312" y="426" type="curve" smooth="yes"/>
			<point x="289" y="420"/>
			<point x="275" y="408"/>
			<point x="268" y="380" type="curve" smooth="yes"/>
			<point x="260" y="348"/>
			<point x="256" y="310"/>
			<point x="256" y="276" type="curve" smooth="yes"/>
			<point x="256" y="248"/>
			<point x="276" y="230"/>
			<point x="302" y="230" type="curve"/>
			<point x="315" y="280"/>
			<point x="324" y="310"/>
			<point x="333" y="380" type="curve"/>
			<point x="293" y="376" type="line"/>
			<point x="296" y="346"/>
			<point x="313" y="331"/>
			<point x="313" y="304" type="curve" smooth="yes"/>
			<point x="313" y="293"/>
			<point x="302" y="287"/>
			<point x="302" y="251" type="curve" smooth="yes"/>
			<point x="302" y="184"/>
			<point x="306" y="139"/>
			<point x="310" y="88" type="curve"/>
		</contour>
		<contour>
			<point x="370" y="454" type="curve" smooth="yes"/>
			<point x="400" y="454"/>
			<point x="428" y="480"/>
			<point x="428" y="512" type="curve" smooth="yes"/>
			<point x="428" y="546"/>
			<point x="402" y="570"/>
			<point x="370" y="570" type="curve" smooth="yes"/>
			<point x="338" y="570"/>
			<point x="312" y="546"/>
			<point x="312" y="512" type="curve" smooth="yes"/>
			<point x="312" y="480"/>
			<point x="338" y="454"/>
		</contour>
	</outline>
</glyph>
<glyph name="AE.sc" format="2">
	<advance width="688"/>
	<outline>
		<contour>
			<point x="26" y="0" type="line"/>
			<point x="58" y="0" type="line"/>
			<point x="240" y="300" type="line"/>
			<point x="276" y="362"/>
			<point x="314" y="425"/>
			<point x="349" y="482" type="curve"/>
			<point x="352" y="482" type="line"/>
			<point x="352" y="0" type="line"/>
			<point x="642" y="0" type="line"/>
			<point x="642" y="28" type="line"/>
			<point x="384" y="28" type="line"/>
			<point x="384" y="258" type="line"/>
			<point x="590" y="258" type="line"/>
			<point x="590" y="286" type="line"/>
			<point x="384" y="286" type="line"/>
			<point x="384" y="482" type="line"/>
			<point x="632" y="482" type="line"/>
			<point x="632" y="510" type="line"/>
			<point x="336" y="510" type="line"/>
		</contour>
		<contour>
			<point x="150" y="168" type="line"/>
			<point x="378" y="168" type="line"/>
			<point x="378" y="196" type="line"/>
			<point x="150" y="196" type="line"/>
		</contour>
	</outline>
	<anchor name="aboveUC" x="476" y="562"/>
</glyph>
<glyph name="Be.sc" format="2">
	<advance width="500"/>
	<outline>
		<contour>
			<point x="100" y="0" type="line"/>
			<point x="262" y="0" type="line" smooth="yes"/>
			<point x="388" y="0"/>
			<point x="456" y="50"/>
			<point x="456" y="150" type="curve" smooth="yes"/>
			<point x="456" y="246"/>
			<point x="378" y="284"/>
			<point x="258" y="284" type="curve" smooth="yes"/>
			<point x="132" y="284" type="line"/>
			<point x="132" y="482" type="line"/>
			<point x="418" y="482" type="line"/>
			<point x="418" y="510" type="line"/>
			<point x="100" y="510" type="line"/>
		</contour>
		<contour>
			<point x="132" y="26" type="line"/>
			<point x="132" y="258" type="line"/>
			<point x="248" y="258" type="line" smooth="yes"/>
			<point x="364" y="258"/>
			<point x="424" y="226"/>
			<point x="424" y="148" type="curve" smooth="yes"/>
			<point x="424" y="64"/>
			<point x="366" y="26"/>
			<point x="252" y="26" type="curve" smooth="yes"/>
		</contour>
	</outline>
</glyph>
<glyph name="Cstroke.sc" format="2">
	<advance width="490"/>
	<outline>
		<contour>
			<point x="182" y="-42" type="line"/>
			<point x="388" y="544" type="line"/>
			<point x="362" y="550" type="line"/>
			<point x="156" y="-36" type="line"/>
		</contour>
		<component base="C.sc"/>
	</outline>
	<anchor name="aboveUC" x="280" y="562"/>
	<anchor name="belowLC" x="280" y="-22"/>
</glyph>
<glyph name="D.sc" format="2">
	<advance width="534"/>
	<outline>
		<contour>
			<point x="100" y="0" type="line"/>
			<point x="226" y="0" type="line" smooth="yes"/>
			<point x="398" y="0"/>
			<point x="478" y="103"/>
			<point x="478" y="256" type="curve" smooth="yes"/>
			<point x="478" y="409"/>
			<point x="398" y="510"/>
			<point x="226" y="510" type="curve" smooth="yes"/>
			<point x="100" y="510" type="line"/>
		</contour>
		<contour>
			<point x="132" y="26" type="line"/>
			<point x="132" y="483" type="line"/>
			<point x="222" y="483" type="line" smooth="yes"/>
			<point x="378" y="483"/>
			<point x="444" y="389"/>
			<point x="444" y="256" type="curve" smooth="yes"/>
			<point x="444" y="113"/>
			<point x="378" y="26"/>
			<point x="222" y="26" type="curve" smooth="yes"/>
		</contour>
	</outline>
	<anchor name="aboveUC" x="280" y="562"/>
	<anchor name="belowLC" x="270" y="-22"/>
</glyph>
<glyph name="Ef.sc" format="2">
	<advance width="610"/>
	<outline>
		<contour>
			<point x="318" y="72" type="line" smooth="yes"/>
			<point x="474" y="72"/>
			<point x="564" y="142"/>
			<point x="564" y="258" type="curve" smooth="yes"/>
			<point x="564" y="375"/>
			<point x="474" y="444"/>
			<point x="318" y="444" type="curve" smooth="yes"/>
			<point x="294" y="444" type="line" smooth="yes"/>
			<point x="138" y="444"/>
			<point x="48" y="375"/>
			<point x="48" y="258" type="curve" smooth="yes"/>
			<point x="48" y="142"/>
			<point x="138" y="72"/>
			<point x="294" y="72" type="curve" smooth="yes"/>
		</contour>
		<contour>
			<point x="294" y="98" type="line" smooth="yes"/>
			<point x="154" y="98"/>
			<point x="82" y="160"/>
			<point x="82" y="258" type="curve" smooth="yes"/>
			<point x="82" y="357"/>
			<point x="154" y="418"/>
			<point x="294" y="418" type="curve" smooth="yes"/>
			<point x="318" y="418" type="line" smooth="yes"/>
			<point x="458" y="418"/>
			<point x="530" y="357"/>
			<point x="530" y="258" type="curve" smooth="yes"/>
			<point x="530" y="160"/>
			<point x="458" y="98"/>
			<point x="318" y="98" type="curve" smooth="yes"/>
		</contour>
		<contour>
			<point x="292" y="-12" type="line"/>
			<point x="320" y="-12" type="line"/>
			<point x="320" y="522" type="line"/>
			<point x="292" y="522" type="line"/>
		</contour>
	</outline>
</glyph>
<glyph name="I.as" format="2">
	<advance width="300"/>
	<outline>
		<contour>
			<point x="42" y="0" type="line"/>
			<point x="258" y="0" type="line"/>
			<point x="258" y="28" type="line"/>
			<point x="166" y="28" type="line"/>
			<point x="166" y="482" type="line"/>
			<point x="258" y="482" type="line"/>
			<point x="258" y="510" type="line"/>
			<point x="42" y="510" type="line"/>
			<point x="42" y="482" type="line"/>
			<point x="134" y="482" type="line"/>
			<point x="134" y="28" type="line"/>
			<point x="42" y="28" type="line"/>
		</contour>
	</outline>
	<anchor name="aboveUC" x="150" y="562"/>
	<anchor name="belowLC" x="150" y="-22"/>
	<anchor name="ogonekUC" x="144" y="0"/>
</glyph>
<glyph name="I.sc" format="2">
	<advance width="232"/>
	<outline>
		<contour>
			<point x="100" y="0" type="line"/>
			<point x="132" y="0" type="line"/>
			<point x="132" y="510" type="line"/>
			<point x="100" y="510" type="line"/>
		</contour>
	</outline>
	<anchor name="aboveUC" x="116" y="562"/>
	<anchor name="belowLC" x="116" y="-22"/>
	<anchor name="ogonekUC" x="110" y="0"/>
</glyph>
<glyph name="Kai.sc" format="2">
	<advance width="512"/>
	<outline>
		<contour>
			<point x="100" y="0" type="line"/>
			<point x="132" y="0" type="line"/>
			<point x="132" y="180" type="line"/>
			<point x="228" y="276" type="line"/>
			<point x="450" y="510" type="line"/>
			<point x="412" y="510" type="line"/>
			<point x="134" y="222" type="line"/>
			<point x="132" y="222" type="line"/>
			<point x="132" y="510" type="line"/>
			<point x="100" y="510" type="line"/>
		</contour>
		<contour>
			<point x="240" y="-138" type="curve" smooth="yes"/>
			<point x="366" y="-138"/>
			<point x="468" y="-54"/>
			<point x="468" y="84" type="curve" smooth="yes"/>
			<point x="468" y="217"/>
			<point x="364" y="290"/>
			<point x="216" y="290" type="curve"/>
			<point x="212" y="262" type="line"/>
			<point x="345" y="262"/>
			<point x="436" y="198"/>
			<point x="436" y="84" type="curve" smooth="yes"/>
			<point x="436" y="-28"/>
			<point x="358" y="-110"/>
			<point x="238" y="-110" type="curve" smooth="yes"/>
			<point x="180" y="-110"/>
			<point x="132" y="-96"/>
			<point x="96" y="-68" type="curve"/>
			<point x="82" y="-92" type="line"/>
			<point x="118" y="-118"/>
			<point x="164" y="-138"/>
		</contour>
	</outline>
	<guideline x="517" y="-138" angle="0" identifier="5qtVgW66OT"/>
</glyph>
<glyph name="Lje.sc" format="2">
	<advance width="750"/>
	<outline>
		<contour>
			<point x="42" y="-12" type="curve" smooth="yes"/>
			<point x="92" y="-12"/>
			<point x="122" y="20"/>
			<point x="152" y="165" type="curve" smooth="yes"/>
			<point x="174" y="270"/>
			<point x="192" y="376"/>
			<point x="214" y="483" type="curve"/>
			<point x="380" y="483" type="line"/>
			<point x="380" y="0" type="line"/>
			<point x="508" y="0" type="line" smooth="yes"/>
			<point x="632" y="0"/>
			<point x="704" y="50"/>
			<point x="704" y="150" type="curve" smooth="yes"/>
			<point x="704" y="246"/>
			<point x="626" y="286"/>
			<point x="506" y="286" type="curve" smooth="yes"/>
			<point x="412" y="286" type="line"/>
			<point x="412" y="510" type="line"/>
			<point x="188" y="510" type="line"/>
			<point x="164" y="388"/>
			<point x="144" y="282"/>
			<point x="121" y="168" type="curve" smooth="yes"/>
			<point x="94" y="40"/>
			<point x="70" y="20"/>
			<point x="40" y="20" type="curve" smooth="yes"/>
			<point x="32" y="20"/>
			<point x="27" y="21"/>
			<point x="18" y="24" type="curve"/>
			<point x="8" y="-6" type="line"/>
			<point x="18" y="-10"/>
			<point x="34" y="-12"/>
		</contour>
		<contour>
			<point x="412" y="28" type="line"/>
			<point x="412" y="258" type="line"/>
			<point x="496" y="258" type="line" smooth="yes"/>
			<point x="612" y="258"/>
			<point x="670" y="226"/>
			<point x="670" y="148" type="curve" smooth="yes"/>
			<point x="670" y="64"/>
			<point x="612" y="28"/>
			<point x="498" y="28" type="curve" smooth="yes"/>
		</contour>
	</outline>
</glyph>
<glyph name="OU.sc" format="2">
	<advance width="572"/>
	<outline>
		<contour>
			<point x="284" y="-12" type="curve" smooth="yes"/>
			<point x="424" y="-12"/>
			<point x="512" y="48"/>
			<point x="512" y="142" type="curve" smooth="yes"/>
			<point x="512" y="246"/>
			<point x="426" y="290"/>
			<point x="334" y="304" type="curve"/>
			<point x="334" y="286" type="line"/>
			<point x="422" y="304"/>
			<point x="468" y="366"/>
			<point x="468" y="466" type="curve" smooth="yes"/>
			<point x="468" y="510" type="line"/>
			<point x="438" y="510" type="line"/>
			<point x="438" y="472" type="line" smooth="yes"/>
			<point x="438" y="344"/>
			<point x="365" y="308"/>
			<point x="284" y="308" type="curve" smooth="yes"/>
			<point x="203" y="308"/>
			<point x="132" y="344"/>
			<point x="132" y="472" type="curve" smooth="yes"/>
			<point x="132" y="510" type="line"/>
			<point x="100" y="510" type="line"/>
			<point x="100" y="466" type="line" smooth="yes"/>
			<point x="100" y="366"/>
			<point x="146" y="304"/>
			<point x="234" y="286" type="curve"/>
			<point x="234" y="304" type="line"/>
			<point x="142" y="290"/>
			<point x="56" y="246"/>
			<point x="56" y="142" type="curve" smooth="yes"/>
			<point x="56" y="48"/>
			<point x="144" y="-12"/>
		</contour>
		<contour>
			<point x="284" y="18" type="curve" smooth="yes"/>
			<point x="164" y="18"/>
			<point x="90" y="64"/>
			<point x="90" y="146" type="curve" smooth="yes"/>
			<point x="90" y="232"/>
			<point x="170" y="278"/>
			<point x="284" y="278" type="curve" smooth="yes"/>
			<point x="398" y="278"/>
			<point x="478" y="232"/>
			<point x="478" y="146" type="curve" smooth="yes"/>
			<point x="478" y="64"/>
			<point x="404" y="18"/>
		</contour>
	</outline>
	<anchor name="aboveUC" x="284" y="562"/>
	<anchor name="belowLC" x="284" y="-22"/>
</glyph>
<glyph name="P.sc" format="2">
	<advance width="492"/>
	<outline>
		<contour>
			<point x="100" y="0" type="line"/>
			<point x="132" y="0" type="line"/>
			<point x="132" y="220" type="line"/>
			<point x="247" y="220" type="line" smooth="yes"/>
			<point x="372" y="220"/>
			<point x="444" y="269"/>
			<point x="444" y="368" type="curve" smooth="yes"/>
			<point x="444" y="472"/>
			<point x="372" y="510"/>
			<point x="247" y="510" type="curve" smooth="yes"/>
			<point x="100" y="510" type="line"/>
		</contour>
		<contour>
			<point x="132" y="247" type="line"/>
			<point x="132" y="483" type="line"/>
			<point x="237" y="483" type="line" smooth="yes"/>
			<point x="355" y="483"/>
			<point x="410" y="455"/>
			<point x="410" y="368" type="curve" smooth="yes"/>
			<point x="410" y="282"/>
			<point x="359" y="247"/>
			<point x="241" y="247" type="curve" smooth="yes"/>
		</contour>
	</outline>
	<anchor name="aboverightUC" x="430" y="562"/>
	<anchor name="aboveUC" x="270" y="562"/>
	<anchor name="belowLC" x="118" y="-22"/>
</glyph>
<glyph name="Phi.sc" format="2">
	<advance width="614"/>
	<outline>
		<contour>
			<point x="296" y="58" type="curve" smooth="yes"/>
			<point x="318" y="58" type="line" smooth="yes"/>
			<point x="471" y="58"/>
			<point x="566" y="135"/>
			<point x="566" y="256" type="curve" smooth="yes"/>
			<point x="566" y="376"/>
			<point x="471" y="450"/>
			<point x="318" y="450" type="curve" smooth="yes"/>
			<point x="296" y="450" type="line" smooth="yes"/>
			<point x="143" y="450"/>
			<point x="48" y="376"/>
			<point x="48" y="256" type="curve" smooth="yes"/>
			<point x="48" y="135"/>
			<point x="143" y="58"/>
		</contour>
		<contour>
			<point x="296" y="84" type="line" smooth="yes"/>
			<point x="162" y="84"/>
			<point x="82" y="153"/>
			<point x="82" y="256" type="curve" smooth="yes"/>
			<point x="82" y="358"/>
			<point x="162" y="424"/>
			<point x="296" y="424" type="curve" smooth="yes"/>
			<point x="318" y="424" type="line" smooth="yes"/>
			<point x="452" y="424"/>
			<point x="532" y="358"/>
			<point x="532" y="256" type="curve" smooth="yes"/>
			<point x="532" y="153"/>
			<point x="452" y="84"/>
			<point x="318" y="84" type="curve" smooth="yes"/>
		</contour>
		<contour>
			<point x="291" y="-18" type="line"/>
			<point x="322" y="-18" type="line"/>
			<point x="322" y="528" type="line"/>
			<point x="291" y="528" type="line"/>
		</contour>
	</outline>
</glyph>
<glyph name="Ssigmoid" format="2">
	<advance width="516"/>
	<outline>
		<contour>
			<point x="258" y="-12" type="curve" smooth="yes"/>
			<point x="390" y="-12"/>
			<point x="474" y="62"/>
			<point x="474" y="162" type="curve" smooth="yes"/>
			<point x="474" y="264"/>
			<point x="410" y="302"/>
			<point x="334" y="336" type="curve" smooth="yes"/>
			<point x="232" y="382" type="line" smooth="yes"/>
			<point x="185" y="403"/>
			<point x="116" y="434"/>
			<point x="116" y="516" type="curve" smooth="yes"/>
			<point x="116" y="592"/>
			<point x="178" y="642"/>
			<point x="270" y="642" type="curve" smooth="yes"/>
			<point x="339" y="642"/>
			<point x="392" y="614"/>
			<point x="432" y="574" type="curve"/>
			<point x="450" y="594" type="line"/>
			<point x="412" y="635"/>
			<point x="350" y="672"/>
			<point x="270" y="672" type="curve" smooth="yes"/>
			<point x="162" y="672"/>
			<point x="84" y="608"/>
			<point x="84" y="514" type="curve" smooth="yes"/>
			<point x="84" y="438"/>
			<point x="130" y="390"/>
			<point x="218" y="352" type="curve"/>
			<point x="218" y="348" type="line"/>
			<point x="136" y="332"/>
			<point x="44" y="258"/>
			<point x="44" y="162" type="curve" smooth="yes"/>
			<point x="44" y="66"/>
			<point x="121" y="-12"/>
		</contour>
		<contour>
			<point x="258" y="18" type="curve" smooth="yes"/>
			<point x="141" y="18"/>
			<point x="76" y="82"/>
			<point x="76" y="164" type="curve" smooth="yes"/>
			<point x="76" y="242"/>
			<point x="155" y="314"/>
			<point x="258" y="334" type="curve"/>
			<point x="348" y="290"/>
			<point x="442" y="272"/>
			<point x="442" y="160" type="curve" smooth="yes"/>
			<point x="442" y="76"/>
			<point x="370" y="18"/>
		</contour>
	</outline>
</glyph>
<glyph name="That.sc" format="2">
	<advance width="516"/>
	<outline>
		<contour>
			<point x="22" y="258" type="line"/>
			<point x="304" y="258" type="line"/>
			<point x="304" y="286" type="line"/>
			<point x="120" y="286" type="line"/>
			<point x="22" y="282" type="line"/>
		</contour>
		<contour>
			<point x="120" y="0" type="line"/>
			<point x="152" y="0" type="line"/>
			<point x="152" y="128" type="line"/>
			<point x="267" y="128" type="line" smooth="yes"/>
			<point x="391" y="128"/>
			<point x="464" y="178"/>
			<point x="464" y="276" type="curve" smooth="yes"/>
			<point x="464" y="379"/>
			<point x="391" y="418"/>
			<point x="267" y="418" type="curve" smooth="yes"/>
			<point x="152" y="418" type="line"/>
			<point x="152" y="510" type="line"/>
			<point x="120" y="510" type="line"/>
		</contour>
		<contour>
			<point x="152" y="156" type="line"/>
			<point x="152" y="390" type="line"/>
			<point x="257" y="390" type="line" smooth="yes"/>
			<point x="374" y="390"/>
			<point x="430" y="363"/>
			<point x="430" y="276" type="curve" smooth="yes"/>
			<point x="430" y="191"/>
			<point x="374" y="156"/>
			<point x="257" y="156" type="curve" smooth="yes"/>
		</contour>
	</outline>
</glyph>
<glyph name="Ucyr.sc" format="2">
	<advance width="410"/>
	<outline>
		<contour>
			<point x="102" y="-12" type="curve" smooth="yes"/>
			<point x="160" y="-12"/>
			<point x="192" y="20"/>
			<point x="216" y="74" type="curve" smooth="yes"/>
			<point x="404" y="510" type="line"/>
			<point x="372" y="510" type="line"/>
			<point x="250" y="228" type="line"/>
			<point x="216" y="144" type="line"/>
			<point x="212" y="144" type="line"/>
			<point x="172" y="228" type="line"/>
			<point x="41" y="510" type="line"/>
			<point x="8" y="510" type="line"/>
			<point x="198" y="108" type="line"/>
			<point x="182" y="72" type="line" smooth="yes"/>
			<point x="166" y="36"/>
			<point x="142" y="18"/>
			<point x="100" y="18" type="curve" smooth="yes"/>
			<point x="88" y="18"/>
			<point x="78" y="20"/>
			<point x="68" y="24" type="curve"/>
			<point x="58" y="-6" type="line"/>
			<point x="70" y="-10"/>
			<point x="84" y="-12"/>
		</contour>
	</outline>
	<anchor name="aboveUC" x="210" y="532"/>
</glyph>
<glyph name="Yat.sc" format="2">
	<advance width="523"/>
	<outline>
		<contour>
			<point x="158" y="0" type="line"/>
			<point x="280" y="0" type="line" smooth="yes"/>
			<point x="404" y="0"/>
			<point x="476" y="50"/>
			<point x="476" y="150" type="curve" smooth="yes"/>
			<point x="476" y="246"/>
			<point x="398" y="286"/>
			<point x="278" y="286" type="curve" smooth="yes"/>
			<point x="190" y="286" type="line"/>
			<point x="190" y="542" type="line"/>
			<point x="158" y="542" type="line"/>
		</contour>
		<contour>
			<point x="190" y="28" type="line"/>
			<point x="190" y="258" type="line"/>
			<point x="268" y="258" type="line" smooth="yes"/>
			<point x="384" y="258"/>
			<point x="442" y="226"/>
			<point x="442" y="148" type="curve" smooth="yes"/>
			<point x="442" y="64"/>
			<point x="384" y="28"/>
			<point x="270" y="28" type="curve" smooth="yes"/>
		</contour>
		<contour>
			<point x="30" y="403" type="line"/>
			<point x="398" y="403" type="line"/>
			<point x="398" y="429" type="line"/>
			<point x="30" y="429" type="line"/>
		</contour>
	</outline>
	<anchor name="aboveUC" x="250" y="562"/>
</glyph>
<glyph name="Yeru.sc" format="2">
	<advance width="672"/>
	<outline>
		<contour>
			<point x="100" y="0" type="line"/>
			<point x="238" y="0" type="line" smooth="yes"/>
			<point x="362" y="0"/>
			<point x="434" y="50"/>
			<point x="434" y="150" type="curve" smooth="yes"/>
			<point x="434" y="246"/>
			<point x="356" y="286"/>
			<point x="236" y="286" type="curve" smooth="yes"/>
			<point x="132" y="286" type="line"/>
			<point x="132" y="510" type="line"/>
			<point x="100" y="510" type="line"/>
		</contour>
		<contour>
			<point x="132" y="28" type="line"/>
			<point x="132" y="258" type="line"/>
			<point x="226" y="258" type="line" smooth="yes"/>
			<point x="342" y="258"/>
			<point x="400" y="226"/>
			<point x="400" y="148" type="curve" smooth="yes"/>
			<point x="400" y="64"/>
			<point x="342" y="28"/>
			<point x="228" y="28" type="curve" smooth="yes"/>
		</contour>
		<contour>
			<point x="540" y="0" type="line"/>
			<point x="572" y="0" type="line"/>
			<point x="572" y="510" type="line"/>
			<point x="540" y="510" type="line"/>
		</contour>
	</outline>
	<anchor name="aboveUC" x="340" y="562"/>
</glyph>
<glyph name="Zhedescender.sc" format="2">
	<advance width="686"/>
	<outline>
		<contour>
			<point x="620" y="-172" type="line"/>
			<point x="646" y="-172" type="line"/>
			<point x="650" y="12" type="line"/>
			<point x="650" y="28" type="line"/>
			<point x="606" y="28" type="line"/>
			<point x="606" y="0" type="line"/>
			<point x="620" y="0" type="line"/>
		</contour>
		<component base="Zhe.sc"/>
	</outline>
</glyph>
<glyph name="acutecmb.cap" format="2">
	<outline>
		<contour>
			<point x="-70" y="710" type="line"/>
			<point x="-34" y="710" type="line"/>
			<point x="120" y="826" type="line"/>
			<point x="118" y="830" type="line"/>
			<point x="70" y="830" type="line"/>
		</contour>
	</outline>
	<anchor name="_aboveUC" x="0" y="682"/>
	<guideline x="30" y="710" angle="0" identifier="6hsw73ZP1Q"/>
	<guideline x="-71" y="840" angle="0" identifier="6J68HC0IC8"/>
</glyph>
<glyph name="aogonek.b" format="2">
	<advance width="498"/>
	<outline>
		<contour>
			<point x="384" y="-212" type="curve" smooth="yes"/>
			<point x="414" y="-212"/>
			<point x="438" y="-198"/>
			<point x="454" y="-184" type="curve"/>
			<point x="440" y="-164" type="line"/>
			<point x="422" y="-178"/>
			<point x="408" y="-184"/>
			<point x="386" y="-184" type="curve" smooth="yes"/>
			<point x="356" y="-184"/>
			<point x="328" y="-166"/>
			<point x="328" y="-128" type="curve" smooth="yes"/>
			<point x="328" y="-74"/>
			<point x="386" y="-20"/>
			<point x="448" y="-2" type="curve"/>
			<point x="442" y="22" type="line"/>
			<point x="432" y="20"/>
			<point x="428" y="20"/>
			<point x="424" y="20" type="curve" smooth="yes"/>
			<point x="412" y="20"/>
			<point x="404" y="30"/>
			<point x="404" y="50" type="curve" smooth="yes"/>
			<point x="404" y="310" type="line" smooth="yes"/>
			<point x="404" y="406"/>
			<point x="370" y="490"/>
			<point x="258" y="490" type="curve" smooth="yes"/>
			<point x="180" y="490"/>
			<point x="114" y="450"/>
			<point x="84" y="428" type="curve"/>
			<point x="100" y="404" type="line"/>
			<point x="130" y="428"/>
			<point x="188" y="462"/>
			<point x="256" y="462" type="curve" smooth="yes"/>
			<point x="356" y="462"/>
			<point x="376" y="376"/>
			<point x="374" y="298" type="curve"/>
			<point x="158" y="274"/>
			<point x="60" y="224"/>
			<point x="60" y="117" type="curve" smooth="yes"/>
			<point x="60" y="26"/>
			<point x="124" y="-12"/>
			<point x="198" y="-12" type="curve" smooth="yes"/>
			<point x="262" y="-12"/>
			<point x="322" y="24"/>
			<point x="372" y="64" type="curve"/>
			<point x="374" y="64" type="line"/>
			<point x="374" y="32"/>
			<point x="380" y="2"/>
			<point x="406" y="-6" type="curve"/>
			<point x="404" y="4" type="line"/>
			<point x="340" y="-32"/>
			<point x="298" y="-72"/>
			<point x="298" y="-130" type="curve" smooth="yes"/>
			<point x="298" y="-186"/>
			<point x="336" y="-212"/>
		</contour>
		<contour>
			<point x="200" y="16" type="curve" smooth="yes"/>
			<point x="142" y="16"/>
			<point x="92" y="44"/>
			<point x="92" y="118" type="curve" smooth="yes"/>
			<point x="92" y="200"/>
			<point x="164" y="248"/>
			<point x="374" y="272" type="curve"/>
			<point x="374" y="98" type="line"/>
			<point x="310" y="44"/>
			<point x="258" y="16"/>
		</contour>
	</outline>
	<anchor name="aboveLC" x="260" y="502"/>
</glyph>
<glyph name="asper.cap" format="2">
	<advance width="102"/>
	<outline>
		<contour>
			<point x="88" y="446" type="curve"/>
			<point x="96" y="468" type="line"/>
			<point x="44" y="490"/>
			<point x="10" y="514"/>
			<point x="10" y="564" type="curve" smooth="yes"/>
			<point x="10" y="615"/>
			<point x="49" y="642"/>
			<point x="116" y="642" type="curve"/>
			<point x="114" y="668" type="line"/>
			<point x="46" y="666"/>
			<point x="-20" y="639"/>
			<point x="-20" y="568" type="curve" smooth="yes"/>
			<point x="-20" y="494"/>
			<point x="33" y="469"/>
		</contour>
	</outline>
</glyph>
<glyph name="asperacute.cap" format="2">
	<advance width="180"/>
	<outline>
		<contour>
			<point x="70" y="446" type="curve"/>
			<point x="82" y="468" type="line"/>
			<point x="42" y="494"/>
			<point x="12" y="523"/>
			<point x="12" y="564" type="curve" smooth="yes"/>
			<point x="12" y="618"/>
			<point x="44" y="640"/>
			<point x="98" y="642" type="curve"/>
			<point x="96" y="668" type="line"/>
			<point x="30" y="666"/>
			<point x="-20" y="641"/>
			<point x="-20" y="566" type="curve" smooth="yes"/>
			<point x="-20" y="509"/>
			<point x="21" y="472"/>
		</contour>
		<contour>
			<point x="130" y="450" type="line"/>
			<point x="154" y="450" type="line"/>
			<point x="200" y="656" type="line"/>
			<point x="198" y="660" type="line"/>
			<point x="164" y="660" type="line"/>
		</contour>
	</outline>
</glyph>
<glyph name="aspergrave.cap" format="2">
	<advance width="190"/>
	<outline>
		<contour>
			<point x="70" y="446" type="curve"/>
			<point x="82" y="468" type="line"/>
			<point x="41" y="494"/>
			<point x="12" y="523"/>
			<point x="12" y="564" type="curve" smooth="yes"/>
			<point x="12" y="618"/>
			<point x="43" y="639"/>
			<point x="98" y="642" type="curve"/>
			<point x="96" y="668" type="line"/>
			<point x="31" y="666"/>
			<point x="-20" y="641"/>
			<point x="-20" y="566" type="curve" smooth="yes"/>
			<point x="-20" y="509"/>
			<point x="20" y="472"/>
		</contour>
		<contour>
			<point x="186" y="450" type="line"/>
			<point x="210" y="450" type="line"/>
			<point x="176" y="660" type="line"/>
			<point x="142" y="660" type="line"/>
			<point x="140" y="656" type="line"/>
		</contour>
	</outline>
</glyph>
<glyph name="braceleft.sc" format="2">
	<advance width="270"/>
	<outline>
		<contour>
			<point x="222" y="-102" type="curve" smooth="yes"/>
			<point x="252" y="-102" type="line"/>
			<point x="252" y="-80" type="line"/>
			<point x="220" y="-80" type="line" smooth="yes"/>
			<point x="156" y="-80"/>
			<point x="140" y="-50"/>
			<point x="140" y="8" type="curve" smooth="yes"/>
			<point x="140" y="56"/>
			<point x="146" y="94"/>
			<point x="146" y="144" type="curve" smooth="yes"/>
			<point x="146" y="198"/>
			<point x="136" y="234"/>
			<point x="98" y="246" type="curve"/>
			<point x="98" y="250" type="line"/>
			<point x="136" y="262"/>
			<point x="146" y="296"/>
			<point x="146" y="352" type="curve" smooth="yes"/>
			<point x="146" y="402"/>
			<point x="140" y="440"/>
			<point x="140" y="488" type="curve" smooth="yes"/>
			<point x="140" y="546"/>
			<point x="156" y="576"/>
			<point x="220" y="576" type="curve" smooth="yes"/>
			<point x="252" y="576" type="line"/>
			<point x="252" y="598" type="line"/>
			<point x="222" y="598" type="line" smooth="yes"/>
			<point x="150" y="598"/>
			<point x="114" y="576"/>
			<point x="114" y="492" type="curve" smooth="yes"/>
			<point x="114" y="439"/>
			<point x="122" y="393"/>
			<point x="122" y="340" type="curve" smooth="yes"/>
			<point x="122" y="300"/>
			<point x="106" y="260"/>
			<point x="36" y="260" type="curve"/>
			<point x="36" y="236" type="line"/>
			<point x="106" y="236"/>
			<point x="122" y="196"/>
			<point x="122" y="154" type="curve" smooth="yes"/>
			<point x="122" y="102"/>
			<point x="114" y="56"/>
			<point x="114" y="4" type="curve" smooth="yes"/>
			<point x="114" y="-80"/>
			<point x="150" y="-102"/>
		</contour>
	</outline>
</glyph>
<glyph name="braceright.sc" format="2">
	<advance width="270"/>
	<outline>
		<contour>
			<point x="18" y="-102" type="line"/>
			<point x="48" y="-102" type="line" smooth="yes"/>
			<point x="120" y="-102"/>
			<point x="156" y="-80"/>
			<point x="156" y="4" type="curve" smooth="yes"/>
			<point x="156" y="56"/>
			<point x="148" y="102"/>
			<point x="148" y="154" type="curve" smooth="yes"/>
			<point x="148" y="196"/>
			<point x="164" y="236"/>
			<point x="234" y="236" type="curve"/>
			<point x="234" y="260" type="line"/>
			<point x="164" y="260"/>
			<point x="148" y="300"/>
			<point x="148" y="340" type="curve" smooth="yes"/>
			<point x="148" y="393"/>
			<point x="156" y="439"/>
			<point x="156" y="492" type="curve" smooth="yes"/>
			<point x="156" y="576"/>
			<point x="120" y="598"/>
			<point x="48" y="598" type="curve" smooth="yes"/>
			<point x="18" y="598" type="line"/>
			<point x="18" y="576" type="line"/>
			<point x="50" y="576" type="line" smooth="yes"/>
			<point x="114" y="576"/>
			<point x="130" y="546"/>
			<point x="130" y="488" type="curve" smooth="yes"/>
			<point x="130" y="440"/>
			<point x="124" y="402"/>
			<point x="124" y="352" type="curve" smooth="yes"/>
			<point x="124" y="296"/>
			<point x="134" y="262"/>
			<point x="172" y="250" type="curve"/>
			<point x="172" y="246" type="line"/>
			<point x="134" y="234"/>
			<point x="124" y="198"/>
			<point x="124" y="144" type="curve" smooth="yes"/>
			<point x="124" y="94"/>
			<point x="130" y="56"/>
			<point x="130" y="8" type="curve" smooth="yes"/>
			<point x="130" y="-50"/>
			<point x="114" y="-80"/>
			<point x="50" y="-80" type="curve"/>
			<point x="18" y="-80" type="line"/>
		</contour>
	</outline>
</glyph>
<glyph name="brevetilde.cap" format="2">
	<outline>
		<contour>
			<point x="0" y="712" type="curve" smooth="yes"/>
			<point x="87" y="712"/>
			<point x="126" y="768"/>
			<point x="132" y="814" type="curve"/>
			<point x="106" y="818" type="line"/>
			<point x="100" y="776"/>
			<point x="67" y="738"/>
			<point x="0" y="738" type="curve" smooth="yes"/>
			<point x="-67" y="738"/>
			<point x="-100" y="776"/>
			<point x="-106" y="818" type="curve"/>
			<point x="-132" y="814" type="line"/>
			<point x="-126" y="768"/>
			<point x="-87" y="712"/>
		</contour>
		<contour>
			<point x="66" y="840" type="curve" smooth="yes"/>
			<point x="120" y="840"/>
			<point x="130" y="882"/>
			<point x="132" y="916" type="curve"/>
			<point x="108" y="918" type="line"/>
			<point x="104" y="886"/>
			<point x="96" y="866"/>
			<point x="68" y="866" type="curve" smooth="yes"/>
			<point x="18" y="866"/>
			<point x="2" y="920"/>
			<point x="-66" y="920" type="curve" smooth="yes"/>
			<point x="-120" y="920"/>
			<point x="-130" y="878"/>
			<point x="-132" y="844" type="curve"/>
			<point x="-108" y="842" type="line"/>
			<point x="-104" y="874"/>
			<point x="-96" y="894"/>
			<point x="-68" y="894" type="curve" smooth="yes"/>
			<point x="-18" y="894"/>
			<point x="-2" y="840"/>
		</contour>
	</outline>
	<anchor name="_aboveUC" x="0" y="682"/>
</glyph>
<glyph name="carondotaccent" format="2">
	<outline>
		<contour>
			<point x="-10" y="570" type="line"/>
			<point x="10" y="570" type="line"/>
			<point x="140" y="704" type="line"/>
			<point x="110" y="704" type="line"/>
			<point x="2" y="604" type="line"/>
			<point x="-2" y="604" type="line"/>
			<point x="-110" y="704" type="line"/>
			<point x="-140" y="704" type="line"/>
		</contour>
		<contour>
			<point x="0" y="720" type="curve" smooth="yes"/>
			<point x="18" y="720"/>
			<point x="32" y="734"/>
			<point x="32" y="756" type="curve" smooth="yes"/>
			<point x="32" y="776"/>
			<point x="18" y="790"/>
			<point x="0" y="790" type="curve" smooth="yes"/>
			<point x="-18" y="790"/>
			<point x="-32" y="776"/>
			<point x="-32" y="756" type="curve" smooth="yes"/>
			<point x="-32" y="734"/>
			<point x="-18" y="720"/>
		</contour>
	</outline>
	<anchor name="_aboveLC" x="0" y="502"/>
</glyph>
<glyph name="circumflexgrave" format="2">
	<outline>
		<contour>
			<point x="-140" y="570" type="line"/>
			<point x="-110" y="570" type="line"/>
			<point x="-2" y="650" type="line"/>
			<point x="2" y="650" type="line"/>
			<point x="110" y="570" type="line"/>
			<point x="140" y="570" type="line"/>
			<point x="10" y="684" type="line"/>
			<point x="-10" y="684" type="line"/>
		</contour>
		<contour>
			<point x="-108" y="650" type="line"/>
			<point x="-80" y="650" type="line"/>
			<point x="-172" y="750" type="line"/>
			<point x="-208" y="750" type="line"/>
			<point x="-210" y="746" type="line"/>
		</contour>
	</outline>
	<anchor name="_aboveLC" x="0" y="502"/>
</glyph>
<glyph name="commaabovecmb.cap" format="2">
	<outline>
		<contour>
			<point x="-22" y="706" type="line"/>
			<point x="30" y="730"/>
			<point x="48" y="766"/>
			<point x="48" y="808" type="curve" smooth="yes"/>
			<point x="48" y="846"/>
			<point x="24" y="866"/>
			<point x="-4" y="866" type="curve" smooth="yes"/>
			<point x="-28" y="866"/>
			<point x="-44" y="850"/>
			<point x="-44" y="830" type="curve" smooth="yes"/>
			<point x="-44" y="806"/>
			<point x="-24" y="796"/>
			<point x="-8" y="796" type="curve" smooth="yes"/>
			<point x="2" y="796"/>
			<point x="12" y="800"/>
			<point x="18" y="806" type="curve"/>
			<point x="18" y="777"/>
			<point x="6" y="748"/>
			<point x="-36" y="728" type="curve"/>
		</contour>
	</outline>
	<anchor name="_aboveUC" x="0" y="682"/>
</glyph>
<glyph name="dieresisgrave" format="2">
	<outline>
		<contour>
			<point x="-86" y="602" type="curve" smooth="yes"/>
			<point x="-68" y="602"/>
			<point x="-54" y="616"/>
			<point x="-54" y="634" type="curve" smooth="yes"/>
			<point x="-54" y="652"/>
			<point x="-68" y="666"/>
			<point x="-86" y="666" type="curve" smooth="yes"/>
			<point x="-104" y="666"/>
			<point x="-118" y="652"/>
			<point x="-118" y="634" type="curve" smooth="yes"/>
			<point x="-118" y="616"/>
			<point x="-104" y="602"/>
		</contour>
		<contour>
			<point x="86" y="602" type="curve" smooth="yes"/>
			<point x="104" y="602"/>
			<point x="118" y="616"/>
			<point x="118" y="634" type="curve" smooth="yes"/>
			<point x="118" y="652"/>
			<point x="104" y="666"/>
			<point x="86" y="666" type="curve" smooth="yes"/>
			<point x="68" y="666"/>
			<point x="54" y="652"/>
			<point x="54" y="634" type="curve" smooth="yes"/>
			<point x="54" y="616"/>
			<point x="68" y="602"/>
		</contour>
		<contour>
			<point x="22" y="700" type="line"/>
			<point x="50" y="700" type="line"/>
			<point x="-52" y="800" type="line"/>
			<point x="-88" y="800" type="line"/>
			<point x="-90" y="796" type="line"/>
		</contour>
	</outline>
	<anchor name="_aboveLC" x="0" y="502"/>
</glyph>
<glyph name="eight.cap" format="2">
	<advance width="472"/>
	<outline>
		<contour>
			<point x="240" y="-12" type="curve" smooth="yes"/>
			<point x="354" y="-12"/>
			<point x="430" y="62"/>
			<point x="430" y="154" type="curve" smooth="yes"/>
			<point x="430" y="244"/>
			<point x="373" y="290"/>
			<point x="318" y="324" type="curve"/>
			<point x="318" y="328" type="line"/>
			<point x="354" y="358"/>
			<point x="410" y="423"/>
			<point x="410" y="496" type="curve" smooth="yes"/>
			<point x="410" y="594"/>
			<point x="348" y="668"/>
			<point x="240" y="668" type="curve" smooth="yes"/>
			<point x="150" y="668"/>
			<point x="78" y="602"/>
			<point x="78" y="508" type="curve" smooth="yes"/>
			<point x="78" y="439"/>
			<point x="124" y="390"/>
			<point x="170" y="360" type="curve"/>
			<point x="170" y="356" type="line"/>
			<point x="110" y="324"/>
			<point x="40" y="256"/>
			<point x="40" y="164" type="curve" smooth="yes"/>
			<point x="40" y="64"/>
			<point x="124" y="-12"/>
		</contour>
		<contour>
			<point x="288" y="338" type="curve"/>
			<point x="202" y="372"/>
			<point x="110" y="411"/>
			<point x="110" y="508" type="curve" smooth="yes"/>
			<point x="110" y="584"/>
			<point x="164" y="640"/>
			<point x="240" y="640" type="curve" smooth="yes"/>
			<point x="328" y="640"/>
			<point x="378" y="573"/>
			<point x="378" y="496" type="curve" smooth="yes"/>
			<point x="378" y="437"/>
			<point x="346" y="384"/>
		</contour>
		<contour>
			<point x="240" y="16" type="curve" smooth="yes"/>
			<point x="142" y="16"/>
			<point x="72" y="82"/>
			<point x="72" y="164" type="curve" smooth="yes"/>
			<point x="72" y="241"/>
			<point x="123" y="302"/>
			<point x="194" y="342" type="curve"/>
			<point x="296" y="302"/>
			<point x="398" y="263"/>
			<point x="398" y="154" type="curve" smooth="yes"/>
			<point x="398" y="78"/>
			<point x="336" y="16"/>
		</contour>
	</outline>
</glyph>
<glyph name="five.sc" format="2">
	<advance width="441"/>
	<outline>
		<contour>
			<point x="211" y="-12" type="curve" smooth="yes"/>
			<point x="299" y="-12"/>
			<point x="390" y="48"/>
			<point x="390" y="158" type="curve" smooth="yes"/>
			<point x="390" y="269"/>
			<point x="311" y="320"/>
			<point x="216" y="320" type="curve" smooth="yes"/>
			<point x="174" y="320"/>
			<point x="141" y="306"/>
			<point x="112" y="290" type="curve"/>
			<point x="129" y="483" type="line"/>
			<point x="359" y="483" type="line"/>
			<point x="359" y="510" type="line"/>
			<point x="102" y="510" type="line"/>
			<point x="82" y="270" type="line"/>
			<point x="106" y="256" type="line"/>
			<point x="138" y="277"/>
			<point x="169" y="293"/>
			<point x="214" y="293" type="curve" smooth="yes"/>
			<point x="300" y="293"/>
			<point x="357" y="240"/>
			<point x="357" y="157" type="curve" smooth="yes"/>
			<point x="357" y="71"/>
			<point x="288" y="16"/>
			<point x="212" y="16" type="curve" smooth="yes"/>
			<point x="130" y="16"/>
			<point x="87" y="47"/>
			<point x="54" y="78" type="curve"/>
			<point x="36" y="56" type="line"/>
			<point x="71" y="24"/>
			<point x="119" y="-12"/>
		</contour>
	</outline>
</glyph>
<glyph name="four.sc" format="2">
	<advance width="447"/>
	<outline>
		<contour>
			<point x="300" y="0" type="line"/>
			<point x="330" y="0" type="line"/>
			<point x="330" y="510" type="line"/>
			<point x="306" y="510" type="line"/>
			<point x="35" y="171" type="line"/>
			<point x="35" y="155" type="line"/>
			<point x="417" y="155" type="line"/>
			<point x="417" y="182" type="line"/>
			<point x="77" y="182" type="line"/>
			<point x="252" y="399" type="line"/>
			<point x="270" y="422"/>
			<point x="284" y="439"/>
			<point x="299" y="460" type="curve"/>
			<point x="302" y="460" type="line"/>
			<point x="301" y="437"/>
			<point x="300" y="396"/>
			<point x="300" y="373" type="curve" smooth="yes"/>
		</contour>
	</outline>
</glyph>
<glyph name="four.tnum" format="2">
	<advance width="472"/>
	<outline>
		<contour>
			<point x="312" y="-70" type="line"/>
			<point x="342" y="-70" type="line"/>
			<point x="342" y="570" type="line"/>
			<point x="322" y="570" type="line"/>
			<point x="16" y="120" type="line"/>
			<point x="16" y="104" type="line"/>
			<point x="440" y="104" type="line"/>
			<point x="440" y="132" type="line"/>
			<point x="58" y="132" type="line"/>
			<point x="260" y="422" type="line"/>
			<point x="278" y="450"/>
			<point x="296" y="480"/>
			<point x="312" y="508" type="curve"/>
			<point x="316" y="508" type="line"/>
			<point x="314" y="480"/>
			<point x="312" y="434"/>
			<point x="312" y="406" type="curve" smooth="yes"/>
		</contour>
	</outline>
</glyph>
<glyph name="haxclam.sc" format="2">
	<advance width="248"/>
	<outline>
		<contour>
			<point x="112" y="172" type="line"/>
			<point x="136" y="172" type="line"/>
			<point x="140" y="448" type="line"/>
			<point x="140" y="510" type="line"/>
			<point x="108" y="510" type="line"/>
			<point x="108" y="448" type="line"/>
		</contour>
		<component base="hariod"/>
	</outline>
</glyph>
<glyph name="huestion.sc" format="2">
	<advance width="394"/>
	<outline>
		<contour>
			<point x="164" y="172" type="curve"/>
			<point x="192" y="172" type="line"/>
			<point x="173" y="286"/>
			<point x="332" y="287"/>
			<point x="332" y="422" type="curve" smooth="yes"/>
			<point x="332" y="487"/>
			<point x="282" y="542"/>
			<point x="192" y="542" type="curve" smooth="yes"/>
			<point x="128" y="542"/>
			<point x="82" y="514"/>
			<point x="46" y="478" type="curve"/>
			<point x="66" y="458" type="line"/>
			<point x="100" y="495"/>
			<point x="144" y="514"/>
			<point x="190" y="514" type="curve" smooth="yes"/>
			<point x="267" y="514"/>
			<point x="300" y="469"/>
			<point x="300" y="420" type="curve" smooth="yes"/>
			<point x="300" y="300"/>
			<point x="143" y="298"/>
		</contour>
		<component base="hariod" xOffset="58"/>
	</outline>
</glyph>
<glyph name="jcrossedtail.x" format="2">
	<advance width="302"/>
	<outline>
		<contour>
			<point x="272" y="-288" type="curve"/>
			<point x="294" y="-274" type="line"/>
			<point x="220" y="-156"/>
			<point x="154" y="-80"/>
			<point x="66" y="-80" type="curve" smooth="yes"/>
			<point x="3" y="-80"/>
			<point x="-30" y="-110"/>
			<point x="-30" y="-152" type="curve" smooth="yes"/>
			<point x="-30" y="-194"/>
			<point x="7" y="-234"/>
			<point x="68" y="-234" type="curve" smooth="yes"/>
			<point x="164" y="-234"/>
			<point x="206" y="-164"/>
			<point x="206" y="-52" type="curve" smooth="yes"/>
			<point x="206" y="478" type="line"/>
			<point x="176" y="478" type="line"/>
			<point x="176" y="-58" type="line" smooth="yes"/>
			<point x="176" y="-124"/>
			<point x="158" y="-206"/>
			<point x="70" y="-206" type="curve" smooth="yes"/>
			<point x="32" y="-206"/>
			<point x="2" y="-184"/>
			<point x="2" y="-154" type="curve" smooth="yes"/>
			<point x="2" y="-128"/>
			<point x="22" y="-108"/>
			<point x="66" y="-108" type="curve" smooth="yes"/>
			<point x="140" y="-108"/>
			<point x="198" y="-174"/>
		</contour>
	</outline>
	<anchor name="aboveLC" x="190" y="502"/>
	<anchor name="belowLC" x="90" y="-222"/>
</glyph>
<glyph name="kabashkir.a" format="2">
	<advance width="572"/>
	<outline>
		<contour>
			<point x="26" y="450" type="line"/>
			<point x="216" y="450" type="line"/>
			<point x="246" y="478" type="line"/>
			<point x="26" y="478" type="line"/>
		</contour>
		<component base="ka.a" xOffset="120"/>
	</outline>
</glyph>
<glyph name="lenisgrave.cap" format="2">
	<advance width="190"/>
	<outline>
		<contour>
			<point x="14" y="446" type="line"/>
			<point x="65" y="472"/>
			<point x="104" y="509"/>
			<point x="104" y="566" type="curve" smooth="yes"/>
			<point x="104" y="641"/>
			<point x="51" y="666"/>
			<point x="-12" y="668" type="curve"/>
			<point x="-14" y="642" type="line"/>
			<point x="41" y="639"/>
			<point x="72" y="618"/>
			<point x="72" y="564" type="curve" smooth="yes"/>
			<point x="72" y="523"/>
			<point x="42" y="494"/>
			<point x="2" y="468" type="curve"/>
		</contour>
		<contour>
			<point x="186" y="450" type="line"/>
			<point x="210" y="450" type="line"/>
			<point x="176" y="660" type="line"/>
			<point x="142" y="660" type="line"/>
			<point x="140" y="656" type="line"/>
		</contour>
	</outline>
</glyph>
<glyph name="lenistildecmb" format="2">
	<outline>
		<contour>
			<point x="-20" y="562" type="line"/>
			<point x="16" y="570"/>
			<point x="54" y="592"/>
			<point x="54" y="630" type="curve" smooth="yes"/>
			<point x="54" y="670"/>
			<point x="12" y="684"/>
			<point x="-46" y="684" type="curve"/>
			<point x="-48" y="660" type="line"/>
			<point x="6" y="660"/>
			<point x="24" y="648"/>
			<point x="24" y="628" type="curve" smooth="yes"/>
			<point x="24" y="606"/>
			<point x="6" y="592"/>
			<point x="-28" y="584" type="curve"/>
		</contour>
		<contour>
			<point x="56" y="706" type="curve" smooth="yes"/>
			<point x="100" y="706"/>
			<point x="116" y="745"/>
			<point x="118" y="776" type="curve"/>
			<point x="94" y="778" type="line"/>
			<point x="90" y="748"/>
			<point x="80" y="732"/>
			<point x="56" y="732" type="curve" smooth="yes"/>
			<point x="16" y="732"/>
			<point x="-4" y="774"/>
			<point x="-56" y="774" type="curve" smooth="yes"/>
			<point x="-100" y="774"/>
			<point x="-116" y="735"/>
			<point x="-118" y="704" type="curve"/>
			<point x="-94" y="702" type="line"/>
			<point x="-90" y="732"/>
			<point x="-80" y="748"/>
			<point x="-56" y="748" type="curve" smooth="yes"/>
			<point x="-16" y="748"/>
			<point x="4" y="706"/>
		</contour>
	</outline>
	<anchor name="_aboveLC" x="0" y="502"/>
</glyph>
<glyph name="macronacute" format="2">
	<outline>
		<contour>
			<point x="-120" y="608" type="line"/>
			<point x="120" y="608" type="line"/>
			<point x="120" y="636" type="line"/>
			<point x="-120" y="636" type="line"/>
		</contour>
		<contour>
			<point x="-60" y="700" type="line"/>
			<point x="-28" y="700" type="line"/>
			<point x="90" y="796" type="line"/>
			<point x="88" y="800" type="line"/>
			<point x="48" y="800" type="line"/>
		</contour>
	</outline>
	<anchor name="_aboveLC" x="0" y="502"/>
</glyph>
<glyph name="macroncmb.cap" format="2">
	<outline>
		<contour>
			<point x="-120" y="746" type="line"/>
			<point x="120" y="746" type="line"/>
			<point x="120" y="774" type="line"/>
			<point x="-120" y="774" type="line"/>
		</contour>
	</outline>
	<anchor name="_aboveUC" x="0" y="682"/>
	<anchor name="aboveUC" x="0" y="782"/>
</glyph>
<glyph name="parenleft.sc" format="2">
	<advance width="270"/>
	<outline>
		<contour>
			<point x="222" y="-124" type="curve"/>
			<point x="240" y="-112" type="line"/>
			<point x="160" y="-10"/>
			<point x="118" y="120"/>
			<point x="118" y="248" type="curve" smooth="yes"/>
			<point x="118" y="376"/>
			<point x="160" y="506"/>
			<point x="240" y="608" type="curve"/>
			<point x="222" y="620" type="line"/>
			<point x="140" y="512"/>
			<point x="90" y="392"/>
			<point x="90" y="248" type="curve" smooth="yes"/>
			<point x="90" y="104"/>
			<point x="140" y="-16"/>
		</contour>
	</outline>
</glyph>
<glyph name="their" format="2">
	<advance width="974"/>
	<outline>
		<contour>
			<point x="548" y="252" type="line"/>
			<point x="666" y="208"/>
			<point x="702" y="198"/>
			<point x="782" y="198" type="curve" smooth="yes"/>
			<point x="874" y="198"/>
			<point x="934" y="262"/>
			<point x="934" y="344" type="curve" smooth="yes"/>
			<point x="934" y="378"/>
			<point x="926" y="402"/>
			<point x="910" y="428" type="curve"/>
			<point x="884" y="414" type="line"/>
			<point x="896" y="390"/>
			<point x="900" y="370"/>
			<point x="900" y="342" type="curve" smooth="yes"/>
			<point x="900" y="276"/>
			<point x="848" y="228"/>
			<point x="784" y="228" type="curve" smooth="yes"/>
			<point x="712" y="228"/>
			<point x="670" y="238"/>
			<point x="592" y="264" type="curve"/>
		</contour>
		<component base="they"/>
	</outline>
</glyph>
<glyph name="they" format="2">
	<advance width="822"/>
	<outline>
		<contour>
			<point x="300" y="-12" type="curve" smooth="yes"/>
			<point x="392" y="-12"/>
			<point x="446" y="56"/>
			<point x="446" y="238" type="curve" smooth="yes"/>
			<point x="446" y="306"/>
			<point x="433" y="391"/>
			<point x="424" y="482" type="curve"/>
			<point x="414" y="484"/>
			<point x="409" y="484"/>
			<point x="402" y="484" type="curve" smooth="yes"/>
			<point x="232" y="484"/>
			<point x="56" y="354"/>
			<point x="56" y="162" type="curve" smooth="yes"/>
			<point x="56" y="84"/>
			<point x="72" y="40"/>
			<point x="96" y="-8" type="curve"/>
			<point x="124" y="4" type="line"/>
			<point x="101" y="50"/>
			<point x="90" y="91"/>
			<point x="90" y="162" type="curve" smooth="yes"/>
			<point x="90" y="339"/>
			<point x="259" y="456"/>
			<point x="396" y="456" type="curve"/>
			<point x="406" y="377"/>
			<point x="414" y="294"/>
			<point x="414" y="234" type="curve" smooth="yes"/>
			<point x="414" y="80"/>
			<point x="372" y="18"/>
			<point x="302" y="18" type="curve" smooth="yes"/>
			<point x="268" y="18"/>
			<point x="242" y="38"/>
			<point x="242" y="76" type="curve" smooth="yes"/>
			<point x="242" y="170"/>
			<point x="372" y="210"/>
			<point x="438" y="224" type="curve" smooth="yes"/>
			<point x="726" y="284"/>
			<point x="788" y="324"/>
			<point x="788" y="410" type="curve" smooth="yes"/>
			<point x="788" y="453"/>
			<point x="757" y="490"/>
			<point x="702" y="490" type="curve" smooth="yes"/>
			<point x="628" y="490"/>
			<point x="552" y="394"/>
			<point x="552" y="256" type="curve" smooth="yes"/>
			<point x="552" y="80"/>
			<point x="603" y="-12"/>
			<point x="712" y="-12" type="curve" smooth="yes"/>
			<point x="755" y="-12"/>
			<point x="781" y="6"/>
			<point x="804" y="28" type="curve"/>
			<point x="788" y="48" type="line"/>
			<point x="761" y="28"/>
			<point x="747" y="18"/>
			<point x="714" y="18" type="curve" smooth="yes"/>
			<point x="627" y="18"/>
			<point x="586" y="102"/>
			<point x="586" y="260" type="curve" smooth="yes"/>
			<point x="586" y="378"/>
			<point x="652" y="460"/>
			<point x="700" y="460" type="curve" smooth="yes"/>
			<point x="733" y="460"/>
			<point x="754" y="438"/>
			<point x="754" y="408" type="curve" smooth="yes"/>
			<point x="754" y="350"/>
			<point x="698" y="308"/>
			<point x="561" y="281" type="curve" smooth="yes"/>
			<point x="332" y="236"/>
			<point x="208" y="185"/>
			<point x="208" y="74" type="curve" smooth="yes"/>
			<point x="208" y="20"/>
			<point x="246" y="-12"/>
		</contour>
	</outline>
</glyph>
<glyph name="tonos.cap" format="2">
	<advance width="40"/>
	<outline>
		<contour>
			<point x="-20" y="450" type="line"/>
			<point x="4" y="450" type="line"/>
			<point x="50" y="656" type="line"/>
			<point x="48" y="660" type="line"/>
			<point x="14" y="660" type="line"/>
		</contour>
	</outline>
</glyph>
<glyph name="tonoscmb" format="2">
	<outline>
		<contour>
			<point x="-30" y="560" type="line"/>
			<point x="-6" y="560" type="line"/>
			<point x="50" y="726" type="line"/>
			<point x="48" y="730" type="line"/>
			<point x="14" y="730" type="line"/>
		</contour>
	</outline>
	<anchor name="_aboveLC" x="0" y="502"/>
</glyph>
<glyph name="yi.a" format="2">
	<advance width="222"/>
	<outline>
		<contour>
			<point x="55" y="602" type="curve" smooth="yes"/>
			<point x="73" y="602"/>
			<point x="87" y="616"/>
			<point x="87" y="634" type="curve" smooth="yes"/>
			<point x="87" y="652"/>
			<point x="73" y="666"/>
			<point x="55" y="666" type="curve" smooth="yes"/>
			<point x="37" y="666"/>
			<point x="23" y="652"/>
			<point x="23" y="634" type="curve" smooth="yes"/>
			<point x="23" y="616"/>
			<point x="37" y="602"/>
		</contour>
		<contour>
			<point x="167" y="602" type="curve" smooth="yes"/>
			<point x="185" y="602"/>
			<point x="199" y="616"/>
			<point x="199" y="634" type="curve" smooth="yes"/>
			<point x="199" y="652"/>
			<point x="185" y="666"/>
			<point x="167" y="666" type="curve" smooth="yes"/>
			<point x="149" y="666"/>
			<point x="135" y="652"/>
			<point x="135" y="634" type="curve" smooth="yes"/>
			<point x="135" y="616"/>
			<point x="149" y="602"/>
		</contour>
		<component base="dotlessi"/>
	</outline>
</glyph>
<glyph name="zero.0s" format="2">
	<advance width="472"/>
	<outline>
		<contour>
			<point x="236" y="-12" type="curve" smooth="yes"/>
			<point x="356" y="-12"/>
			<point x="422" y="110"/>
			<point x="422" y="322" type="curve" smooth="yes"/>
			<point x="422" y="534"/>
			<point x="356" y="652"/>
			<point x="236" y="652" type="curve" smooth="yes"/>
			<point x="116" y="652"/>
			<point x="50" y="534"/>
			<point x="50" y="322" type="curve" smooth="yes"/>
			<point x="50" y="110"/>
			<point x="116" y="-12"/>
		</contour>
		<contour>
			<point x="236" y="16" type="curve" smooth="yes"/>
			<point x="142" y="16"/>
			<point x="82" y="124"/>
			<point x="82" y="322" type="curve" smooth="yes"/>
			<point x="82" y="520"/>
			<point x="142" y="624"/>
			<point x="236" y="624" type="curve" smooth="yes"/>
			<point x="330" y="624"/>
			<point x="390" y="520"/>
			<point x="390" y="322" type="curve" smooth="yes"/>
			<point x="390" y="124"/>
			<point x="330" y="16"/>
		</contour>
		<contour>
			<point x="362" y="120" type="line"/>
			<point x="392" y="124" type="line"/>
			<point x="110" y="524" type="line"/>
			<point x="80" y="520" type="line"/>
		</contour>
	</outline>
</glyph>
<glyph name="zhedescender.a" format="2">
	<advance width="650"/>
	<outline>
		<contour>
			<point x="594" y="-172" type="line"/>
			<point x="620" y="-172" type="line"/>
			<point x="624" y="12" type="line"/>
			<point x="624" y="28" type="line"/>
			<point x="570" y="28" type="line"/>
			<point x="570" y="0" type="line"/>
			<point x="594" y="0" type="line"/>
		</contour>
		<component base="zhe.a"/>
	</outline>
</glyph>
